<?xml version="1.0" encoding="UTF-8"?>
<svg width="243px" height="140px" viewBox="0 0 243 140" version="1.1" xmlns="http://www.w3.org/2000/svg" xmlns:xlink="http://www.w3.org/1999/xlink">
    <!-- Generator: Sketch 58 (84663) - https://sketch.com -->
    <title>counter</title>
    <desc>Created with Sketch.</desc>
    <g id="Page-1" stroke="none" stroke-width="1" fill="none" fill-rule="evenodd">
        <g id="counter" transform="translate(1.000000, 1.000000)">
            <path d="M197.4,-4.26325641e-14 C211.6,-4.26325641e-14 223.8,4 231.6,12.8 C232.8,14.2 233.4,16 233.4,17.8 C233.4,22.8 229.2,26.6 224.6,26.6 C222.8,26.6 220.8,26 219.4,25 C213.8,20.4 207.2,17.6 197.4,17.6 C173.4,17.6 161,41.2 161,66 L161,66 L161.000926,66.637037 C161.004321,67.241358 161.020165,67.2979424 161.094102,67.8109739 L161.094102,67.8109739 L161.2,68.6 C167,59.4 179.4,50.8 198,50.8 C222,50.8 242,64.2 242,92.6 C242,116.6 223.6,137.8 194.2,137.8 C156,137.8 141,105.6 141,69 C141,31.6 159.4,-4.26325641e-14 197.4,-4.26325641e-14 Z M193.4,67.8 C176.2,67.8 166.4,81.6 166.4,94.2 C166.4,107.4 176.4,120.2 195.2,120.2 C212.4,120.2 222,106.2 222,94.4 C222,80.2 212.4,67.8 193.4,67.8 Z" id="Combined-Shape" fill="#00003C" fill-rule="nonzero"></path>
            <path d="M101,93.6 C101,65.2 81,50.8 57,50.8 C40.4,50.8 26,61.4 20.2,70.6 C20,69 20,67.6 20,66 C20,41.2 32.4,17.6 56.4,17.6 C66.2,17.6 72.8,20.4 78.4,25 C79.8,26 81.8,26.6 83.6,26.6 C88.2,26.6 92.4,22.8 92.4,17.8 C92.4,16 91.8,14.2 90.6,12.8 C82.8,4 70.6,-2.84217094e-14 56.4,-2.84217094e-14 C18.4,-2.84217094e-14 0,31.6 0,69 C0,105.6 15,137.8 53.2,137.8 C82.6,137.8 101,117.6 101,93.6 Z" id="6" stroke="#0356FF" stroke-width="2"></path>
            <path d="M81,94.4 C81,106.2 71.4,120.2 52.2,120.2 C30.4,120.2 22,101.4 20.4,85.8 C27.6,75.2 39.6,67.8 51.8,67.8 C67.8,67.8 81,76.2 81,94.4 Z" id="Path" stroke="#0356FF" stroke-width="2" fill-opacity="0" fill="#C5D7FD" fill-rule="nonzero"></path>
        </g>
    </g>
</svg>