<?xml version="1.0" encoding="UTF-8"?>
<svg width="500px" height="500px" viewBox="0 0 500 500" version="1.1" xmlns="http://www.w3.org/2000/svg" xmlns:xlink="http://www.w3.org/1999/xlink">
    <!-- Generator: Sketch Beta 58 (84661) - https://sketch.com -->
    <title>Artboard Copy 3</title>
    <desc>Created with Sketch Beta.</desc>
    <g id="Artboard-Copy-3" stroke="none" stroke-width="1" fill="none" fill-rule="evenodd">
        <path d="M268.537674,243.420637 C265.10296,240.456016 261.66267,237.507865 258.216804,234.576184 C257.559274,234.2026 257.15418,233.511939 257.15418,232.764471 C257.15418,232.017003 257.559274,231.326341 258.216804,230.952758 C265.091808,225.056456 271.950085,219.143684 278.875271,213.313262 C279.717558,212.646448 280.755981,212.265197 281.83604,212.226234 C288.677589,212.143884 295.519138,212.226234 302.360687,212.226234 C303.682159,212.226234 304.919995,212.226234 305.15418,214.301469 C304.861053,214.846446 304.495399,215.350485 304.066892,215.80025 C293.338986,225.056456 282.594353,234.290702 271.832992,243.502988 C271.40225,243.9551 270.795977,244.204661 270.16659,244.188933 C269.537203,244.173204 268.944568,243.893682 268.537674,243.420637 L268.537674,243.420637 Z" id="Fill-4" fill="#FFFFFF" fill-rule="nonzero"></path>
        <path d="M291.65534,288.141329 C289.254676,288.017491 286.849465,288.017491 284.448802,288.141329 C281.704598,288.431716 278.984036,287.401718 277.081403,285.35205 C271.338693,279.971547 265.40295,274.822109 259.547638,269.573643 C257.681659,267.923182 257.697745,267.048438 259.547638,265.381472 C262.636154,262.608698 265.756843,259.901942 268.797101,257.129168 C269.27377,256.53433 269.984917,256.189634 270.735467,256.189634 C271.486017,256.189634 272.197164,256.53433 272.673833,257.129168 C282.775855,266.206703 292.942222,275.284238 303.012072,284.328764 C303.671599,284.906425 303.784201,286.127766 304.15418,287.03552 C303.37495,287.521002 302.520947,287.867027 301.628674,288.058805 C298.314953,288.207347 294.985147,288.141329 291.65534,288.141329 L291.65534,288.141329 Z" id="Fill-5" fill="#FFFFFF" fill-rule="nonzero"></path>
        <path d="M221.167798,213.239796 C234.731447,224.857212 248.272987,236.496507 261.792419,248.15768 C263.5998,249.798558 263.616381,250.651815 261.792419,252.19424 C248.217716,263.910109 234.626431,275.6041 221.018565,287.276212 C220.289692,287.829037 219.399856,288.134071 218.481599,288.145877 C214.982907,288.24433 211.484215,288.145877 207.985523,288.145877 L197.920566,288.145877 C197.000423,287.947999 196.120411,287.598551 195.317274,287.112124 C195.698648,286.193232 195.847881,285.0118 196.527722,284.421084 C206.028909,276.118241 215.613003,267.897442 225.180516,259.643826 C227.999367,257.231735 230.801637,254.836053 233.603906,252.407554 C235.89215,250.422092 235.89215,249.979055 233.603906,248.059227 C221.289396,237.437277 208.974885,226.820796 196.660374,216.209785 C195.93158,215.652699 195.407381,214.874589 195.168041,213.9946 C195.018807,212.665489 196.096604,212.189634 197.340214,212.189634 L218.796647,212.189634 C219.683814,212.266107 220.519098,212.636046 221.167798,213.239796 L221.167798,213.239796 Z" id="Fill-1" fill="#FFFFFF" fill-rule="nonzero"></path>
    </g>
</svg>