<?xml version="1.0" encoding="UTF-8"?>
<svg width="500px" height="500px" viewBox="0 0 500 500" version="1.1" xmlns="http://www.w3.org/2000/svg" xmlns:xlink="http://www.w3.org/1999/xlink">
    <!-- Generator: Sketch Beta 58 (84661) - https://sketch.com -->
    <title>Artboard Copy 2</title>
    <desc>Created with Sketch Beta.</desc>
    <g id="Artboard-Copy-2" stroke="none" stroke-width="1" fill="none" fill-rule="evenodd">
        <g id="Group" transform="translate(35.000000, 35.000000)">
            <rect id="Rectangle-Copy-28" fill="#DEE7FA" x="380" y="380" width="51" height="51" rx="4"></rect>
            <rect id="Rectangle-Copy-27" fill="#DEE7FA" x="285" y="380" width="51" height="51" rx="4"></rect>
            <rect id="Rectangle-Copy-26" fill="#DEE7FA" x="190" y="380" width="51" height="51" rx="4"></rect>
            <rect id="Rectangle-Copy-25" fill="#DEE7FA" x="95" y="380" width="51" height="51" rx="4"></rect>
            <rect id="Rectangle-Copy-24" fill="#DEE7FA" x="0" y="380" width="51" height="51" rx="4"></rect>
            <rect id="Rectangle-Copy-22" fill="#DEE7FA" x="380" y="285" width="51" height="51" rx="4"></rect>
            <rect id="Rectangle-Copy-21" fill="#DEE7FA" x="285" y="285" width="51" height="51" rx="4"></rect>
            <rect id="Rectangle-Copy-20" fill="#DEE7FA" x="190" y="285" width="51" height="51" rx="4"></rect>
            <rect id="Rectangle-Copy-19" fill="#DEE7FA" x="95" y="285" width="51" height="51" rx="4"></rect>
            <rect id="Rectangle-Copy-18" fill="#DEE7FA" x="0" y="285" width="51" height="51" rx="4"></rect>
            <rect id="Rectangle-Copy-16" fill="#DEE7FA" x="380" y="190" width="51" height="51" rx="4"></rect>
            <rect id="Rectangle-Copy-15" fill="#DEE7FA" x="285" y="190" width="51" height="51" rx="4"></rect>
            <rect id="Rectangle-Copy-14" fill="#0053FF" x="190" y="190" width="51" height="51" rx="4"></rect>
            <rect id="Rectangle-Copy-13" fill="#DEE7FA" x="95" y="190" width="51" height="51" rx="4"></rect>
            <rect id="Rectangle-Copy-12" fill="#DEE7FA" x="0" y="190" width="51" height="51" rx="4"></rect>
            <rect id="Rectangle-Copy-10" fill="#DEE7FA" x="380" y="95" width="51" height="51" rx="4"></rect>
            <rect id="Rectangle-Copy-9" fill="#DEE7FA" x="285" y="95" width="51" height="51" rx="4"></rect>
            <rect id="Rectangle-Copy-8" fill="#DEE7FA" x="190" y="95" width="51" height="51" rx="4"></rect>
            <rect id="Rectangle-Copy-7" fill="#DEE7FA" x="95" y="95" width="51" height="51" rx="4"></rect>
            <rect id="Rectangle-Copy-6" fill="#DEE7FA" x="0" y="95" width="51" height="51" rx="4"></rect>
            <rect id="Rectangle-Copy-4" fill="#DEE7FA" x="380" y="0" width="51" height="51" rx="4"></rect>
            <rect id="Rectangle-Copy-3" fill="#DEE7FA" x="285" y="0" width="51" height="51" rx="4"></rect>
            <rect id="Rectangle-Copy-2" fill="#DEE7FA" x="190" y="0" width="51" height="51" rx="4"></rect>
            <rect id="Rectangle-Copy" fill="#DEE7FA" x="95" y="0" width="51" height="51" rx="4"></rect>
            <rect id="Rectangle" fill="#DEE7FA" x="0" y="0" width="51" height="51" rx="4"></rect>
        </g>
    </g>
</svg>