<?xml version="1.0" encoding="UTF-8"?>
<svg width="500px" height="500px" viewBox="0 0 500 500" version="1.1" xmlns="http://www.w3.org/2000/svg" xmlns:xlink="http://www.w3.org/1999/xlink">
    <!-- Generator: Sketch 57.1 (83088) - https://sketch.com -->
    <title>Artboard Copy</title>
    <desc>Created with Sketch.</desc>
    <g id="Artboard-Copy" stroke="none" stroke-width="1" fill="none" fill-rule="evenodd">
        <g id="00" transform="translate(177.000000, 210.000000)" fill="#FFFFFF" fill-rule="nonzero">
            <path d="M17.228,0.0207448138 L26.1965714,0.0207448138 C21.608,4.58460385 17.6451429,9.43889028 14.2245714,14.5421145 L17.228,0.0207448138 L17.228,0.0207448138 Z M21.4828571,30.308173 C25.1537143,22.2176956 30.5348571,14.6665834 37.4802857,7.8207948 C40.3347493,4.99168502 43.4027592,2.3840509 46.6574286,0.0207448138 L60.8402857,0.0207448138 C60.4231429,0.228192952 59.9642857,0.43564109 59.5054286,0.643089228 C53.3525714,3.63034241 47.7211429,7.63409148 42.7362857,12.5298675 C37.4802857,17.716071 33.288,23.3586603 30.2637143,29.3331667 C27.3437143,35.1417146 25.55,41.1162209 24.966,47.0907273 C23.8188571,59.1227193 27.7608571,70.2834291 36.062,78.4776306 C37.788569,80.1870364 39.6979197,81.703508 41.756,83 L27.0725714,83 C23.7982991,79.3553517 21.186935,75.1715923 19.3554286,70.636091 C17.228,65.3669083 16.1642857,59.6828293 16.1642857,53.7290677 C16.1642857,45.9497626 17.958,38.0874781 21.4828571,30.2874281 L21.4828571,30.308173 Z M40.2542857,19.3134216 C41.655548,17.6316164 43.1381537,16.0185334 44.6968571,14.47988 C51.7882857,7.48887778 60.0477143,2.65533617 68.474,0.0207448138 L76.2954286,0.0207448138 L75.3777143,4.37715571 C65.6791429,5.76705824 56.1891429,10.6005999 48.5971429,18.1309673 C48.18,18.5458635 47.8045714,18.9192702 47.4291429,19.3134216 L40.2542857,19.3134216 L40.2542857,19.3134216 Z M84.9928571,53.8742814 C82.198,56.6540865 78.9442857,58.6455886 75.6697143,59.8902774 L76.5665714,55.5338665 C78.9776371,54.4982729 81.1710888,53.0203888 83.0322857,51.1774556 C86.1608571,48.1487128 88.038,44.3316671 88.33,40.4938765 C88.6428571,36.6353412 87.3914286,33.087978 84.7842857,30.4948763 C84.0157933,29.7534308 83.144934,29.1247596 82.198,28.627843 L83.1574286,23.9602599 C85.0345714,24.6655836 86.7448571,25.7235691 88.1631429,27.1342164 C91.1665714,30.1007248 92.7517143,33.8347913 92.7517143,37.9630092 C92.7517143,43.3151712 89.9985714,48.9577606 85.0345714,53.8950262 L84.9928571,53.8742814 Z M95.5048571,37.9422644 C95.5048571,33.0672332 93.6277143,28.6693327 90.082,25.1842039 C88.2682805,23.4036077 86.0717232,22.0558863 83.658,21.2426893 L84.7634286,15.9735066 C88.3091429,16.8032992 91.4377143,18.5458635 93.9405714,21.055986 C103.66,30.5986003 101.824571,46.8417896 89.7065714,58.8115471 C85.0345714,63.3754061 79.5282857,66.5908523 73.9385714,68.0637341 L74.9814286,62.9812547 C79.3614286,61.6950762 83.4702857,59.2471882 86.9325714,55.8242939 C92.4388571,50.3891527 95.484,43.9997501 95.484,37.9422644 L95.5048571,37.9422644 Z M85.5142857,40.2656836 C85.3057143,43.4811297 83.6997143,46.6965759 81.0717143,49.2689328 C79.938041,50.3787635 78.661616,51.3344142 77.2757143,52.1109723 L81.5722857,31.4698825 C82.0311429,31.7603099 82.4065714,32.0922269 82.8237143,32.4448888 C84.826,34.4571357 85.8062857,37.216196 85.5768571,40.327918 L85.5142857,40.2656836 Z M4.88057143,76.9217696 C5.71661995,79.0068411 6.68494941,81.0370031 7.77971429,83 L0,83 L2.64885714,70.2626843 C3.23362324,72.520279 3.96516227,74.7377243 4.83885714,76.9010247 L4.88057143,76.9217696 Z M13.3485714,53.7498125 C13.3485714,60.0354911 14.5165714,66.0722319 16.7691429,71.631842 C18.4190609,75.7273829 20.6680886,79.5581004 23.4434286,83 L10.9917143,83 C9.62547739,80.7235441 8.43997231,78.3444954 7.446,75.8845289 C5.81069619,71.8346019 4.68966194,67.5976142 4.10885714,63.2716821 L12.5142857,22.6325919 C16.6857143,15.03999 22.1085714,7.90377406 28.7411429,1.38990252 C29.2208571,0.912771807 29.7005714,0.456385904 30.2011429,0 L42.1314286,0 C39.8232236,1.83017851 37.6161033,3.78303612 35.5197143,5.85003749 C28.324,12.9447638 22.7551429,20.7863034 18.9382857,29.187953 C15.2465714,37.2784304 13.3694286,45.5763559 13.3694286,53.7083229 L13.3485714,53.7498125 Z M36.8337143,49.5593602 C36.8337143,43.335916 38.6065714,37.0709823 41.9645714,31.1587103 L47.9297143,31.1587103 C44.7385714,36.427893 42.9865714,42.2156961 42.9865714,47.8790302 C42.9865714,48.8540365 43.07,49.8082979 43.1951429,50.7418145 L36.8754286,50.7418145 C36.8543714,50.3548648 36.8404643,49.9675629 36.8337143,49.580105 L36.8337143,49.5593602 Z M65.0325714,31.1379655 C64.434835,31.6110006 63.8638673,32.1165635 63.3222857,32.6523369 C59.6097143,36.324169 57.5657143,40.7428143 57.5657143,45.0992252 C57.5657143,47.1322169 58.0245714,49.0407398 58.8588571,50.7003249 L53.9157143,50.7003249 C53.5235164,49.2812087 53.3270518,47.81566 53.3316332,46.343914 C53.3316332,41.1577106 55.7094286,35.6810797 59.8808571,31.1587103 L65.0534286,31.1587103 L65.0325714,31.1379655 Z M45.7814286,47.8582854 C45.7814286,42.1949513 47.7002857,36.3656586 51.2042857,31.1587103 L56.2517143,31.1587103 C54.8079646,32.9736122 53.5959626,34.9595097 52.6434286,37.0709823 C51.246,40.1412147 50.5577143,43.2944264 50.5577143,46.4061485 C50.5577143,47.8582854 50.7037143,49.351912 51.0374286,50.7625594 L45.9482857,50.7625594 C45.844,49.8082979 45.7814286,48.8540365 45.7814286,47.8582854 L45.7814286,47.8582854 Z M91.6671429,60.7615596 C104.932286,47.6923269 106.767714,29.7895526 95.9637143,19.1267183 C93.0437143,16.263934 89.4354286,14.2931767 85.3682857,13.3181705 L86.6197143,7.2191952 C92.1051429,8.17345664 97.1108571,10.5383654 101.052857,14.4383904 C106.329714,19.6245939 109.187143,26.0554861 109.437429,33.2331917 C109.500076,35.1753922 109.388395,37.1192795 109.103714,39.0417396 C107.810571,47.8375406 102.992571,56.7163209 95.5465714,64.0392402 C89.0391429,70.4701325 80.6545714,74.9302674 72.2282857,76.5691077 L73.3754286,71.0509873 C79.8828571,69.6403399 86.3068571,66.0722319 91.7297143,60.7615596 L91.6671429,60.7615596 Z M103.034286,12.4676331 C99.6971429,9.21069733 95.6925714,6.82504374 91.0831429,5.4143964 C89.8099324,5.0317094 88.5143678,4.72688234 87.2037143,4.50162459 L88.0797143,0.0207448138 L96.214,0.0207448138 C100.657221,1.61350972 104.699422,4.14751374 108.060857,7.44738815 C111.564857,10.9325169 114.234571,14.9155211 115.986571,19.3134216 L112.274,19.3134216 L110.96,25.619845 L110.855714,25.2049488 C109.395714,20.4336416 106.746857,16.1809548 102.992571,12.4676331 L103.034286,12.4676331 Z M119.031714,19.3134216 C117.154571,14.1272182 114.151143,9.50112472 110.063143,5.49737566 C107.891994,3.35848672 105.44409,1.51674963 102.784,0.0207448138 L117.968,0.0207448138 C123.083455,5.44430143 126.704318,12.0896714 128.48,19.3134216 L118.99,19.3134216 L119.031714,19.3134216 Z M73.6257143,12.9862534 C68.474,13.9197701 63.4682857,16.0979755 58.9631429,19.2926768 L51.3711429,19.2926768 C58.3374286,12.695826 66.6594286,8.62984254 74.7937143,7.26068483 L73.584,12.9862534 L73.6257143,12.9862534 Z M73,15.8905274 L72.2908571,19.2926768 L64.1148571,19.2926768 C66.8968355,17.7493794 69.8899597,16.6172791 73,15.932017 L73,15.8905274 Z M27.74,47.3604099 C28.6577143,38.1289678 32.7457143,28.7523119 39.42,20.392152 L37.1257143,31.1379655 L38.7942857,31.1379655 C35.6657143,37.0917271 33.9971429,43.3774056 33.9971429,49.5593602 C33.9971429,49.9742564 33.9971429,50.3269183 33.9971429,50.7210697 L33.0377143,50.7210697 L30.4931429,63.3131717 L37.1048571,63.3131717 C38.5413285,66.2719314 40.4739066,68.9657754 42.8197143,71.2791802 C47.4082857,75.8015496 53.1648571,78.6228443 59.714,79.6185954 L59.0257143,83 L47.6377143,83 C44.0673273,81.4648742 40.8142062,79.2843605 38.0434286,76.5691077 C30.3262857,68.9557611 26.6971429,58.5833542 27.7608571,47.3189203 L27.74,47.3604099 Z M63.1554286,63.3754061 L62.1125714,68.4578855 C58.4661529,67.6350878 55.100468,65.8754737 52.3514286,63.3546613 L63.1971429,63.3546613 L63.1554286,63.396151 L63.1554286,63.3754061 Z M61.4868571,71.1547113 L60.298,76.9632592 C54.2911429,76.0504874 49.0351429,73.4781305 44.8637143,69.3499125 C43.0508111,67.5748954 41.5053161,65.5486238 40.2751429,63.3339165 L48.5137143,63.3339165 C48.9308571,63.8110472 49.348,64.2466883 49.7651429,64.6823294 C53.1022857,68.0014996 57.0651429,70.1589603 61.5285714,71.1547113 L61.4868571,71.1547113 Z M99.0714286,83 L87.308,83 C92.2628131,80.5808143 96.8596696,77.4955197 100.969429,73.8307923 L99.0714286,83 Z M118.468571,34.2911772 C118.406,35.3699075 118.322571,36.4693827 118.197429,37.5688578 C117.509143,43.0454886 115.757143,48.5636091 113.024857,53.8535366 L106.767714,53.8535366 C109.374857,49.1859535 111.085143,44.3109223 111.815143,39.3944014 C112.065429,37.6725819 112.190571,35.9715071 112.190571,34.2911772 L118.447714,34.2911772 L118.468571,34.2911772 Z M134.778857,0.0207448138 C136.082486,2.24370706 137.218831,4.55962805 138.178571,6.94951262 C139.762495,10.9274411 140.868629,15.0774753 141.474,19.3134216 L131.337429,19.3134216 C129.69633,12.2098654 126.379029,5.59677386 121.659714,0.0207448138 L134.799714,0.0207448138 L134.778857,0.0207448138 Z M137.97,0.0207448138 L146,0.0207448138 L143.205143,13.5463634 C142.069851,8.83023081 140.316767,4.28281114 137.990857,0.0207448138 L137.97,0.0207448138 Z M129.731429,34.2911772 C129.668857,34.9135216 129.606286,35.535866 129.522857,36.1582104 C128.897143,42.1327168 127.270286,48.0864784 124.725714,53.8535366 L116.132571,53.8535366 C118.635429,48.6673332 120.304,43.2736816 120.929714,37.88003 C121.096571,36.6975756 121.200857,35.4943764 121.263429,34.2911772 L129.710571,34.2911772 L129.731429,34.2911772 Z M132.317714,36.4693827 C132.380286,35.7433142 132.442857,35.0172457 132.526286,34.2911772 L138.157714,34.2911772 L134.194857,53.8742814 L127.729143,53.8742814 C130.127714,48.1694576 131.692,42.3194201 132.317714,36.4486378 L132.317714,36.4693827 Z M71.6234286,79.4111472 C80.9674286,77.876031 90.3114286,73.083979 97.528,65.9270182 C100.031318,63.4700233 102.294073,60.7818443 104.285714,57.8987753 L101.991429,69.0594851 C101.678571,69.3499125 101.365714,69.6403399 101.094571,69.9307673 C95.1808872,75.7444496 88.0629332,80.2046097 80.2374286,83 L70.8517143,83 L71.6025714,79.431892 L71.6234286,79.4111472 Z M65.2828571,34.6023494 C66.37244,33.5214005 67.5995182,32.5868695 68.9328571,31.8225444 L65.0742857,50.7003249 L62.0917143,50.7003249 C60.9445714,49.1444639 60.3605714,47.235941 60.3605714,45.0992252 C60.3605714,41.4688828 62.0917143,37.7348163 65.2828571,34.6023494 L65.2828571,34.6023494 Z" id="Shape"></path>
        </g>
    </g>
</svg>