<?xml version="1.0" encoding="UTF-8"?>
<svg width="700px" height="400px" viewBox="0 0 700 400" version="1.1" xmlns="http://www.w3.org/2000/svg" xmlns:xlink="http://www.w3.org/1999/xlink">
    <!-- Generator: Sketch Beta 58 (84659) - https://sketch.com -->
    <title>Artboard Copy 2</title>
    <desc>Created with Sketch Beta.</desc>
    <g id="Artboard-Copy-2" stroke="none" stroke-width="1" fill="none" fill-rule="evenodd">
        <g id="Group" transform="translate(229.000000, 131.000000)" fill-rule="nonzero">
            <path d="M242,92.6 C242,64.2 222,50.8 198,50.8 C179.4,50.8 167,59.4 161.2,68.6 L161.094102,67.8109739 C161.020165,67.2979424 161.004321,67.241358 161.000926,66.637037 L161,66 C161,41.2 173.4,17.6 197.4,17.6 C207.2,17.6 213.8,20.4 219.4,25 C220.8,26 222.8,26.6 224.6,26.6 C229.2,26.6 233.4,22.8 233.4,17.8 C233.4,16 232.8,14.2 231.6,12.8 C223.8,4 211.6,-2.84217094e-14 197.4,-2.84217094e-14 C159.4,-2.84217094e-14 141,31.6 141,69 C141,105.6 156,137.8 194.2,137.8 C223.6,137.8 242,116.6 242,92.6 Z" id="6" fill="#00003C"></path>
            <path d="M222,94.4 C222,106.2 212.4,120.2 195.2,120.2 C176.4,120.2 166.4,107.4 166.4,94.2 C166.4,81.6 176.2,67.8 193.4,67.8 C212.4,67.8 222,80.2 222,94.4 Z" id="Path" stroke="#0356FF" stroke-width="2" fill="#C5D7FD"></path>
            <path d="M101,93.6 C101,65.2 81,50.8 57,50.8 C40.4,50.8 26,61.4 20.2,70.6 C20,69 20,67.6 20,66 C20,41.2 32.4,17.6 56.4,17.6 C66.2,17.6 72.8,20.4 78.4,25 C79.8,26 81.8,26.6 83.6,26.6 C88.2,26.6 92.4,22.8 92.4,17.8 C92.4,16 91.8,14.2 90.6,12.8 C82.8,4 70.6,-2.84217094e-14 56.4,-2.84217094e-14 C18.4,-2.84217094e-14 0,31.6 0,69 C0,105.6 15,137.8 53.2,137.8 C82.6,137.8 101,117.6 101,93.6 Z" id="6" stroke="#0356FF" stroke-width="2"></path>
            <path d="M81,94.4 C81,106.2 71.4,120.2 52.2,120.2 C30.4,120.2 22,101.4 20.4,85.8 C27.6,75.2 39.6,67.8 51.8,67.8 C67.8,67.8 81,76.2 81,94.4 Z" id="Path" stroke="#0356FF" stroke-width="2" fill="#C5D7FD"></path>
        </g>
    </g>
</svg>