<?xml version="1.0" encoding="UTF-8"?>
<svg width="350px" height="200px" viewBox="0 0 350 200" version="1.1" xmlns="http://www.w3.org/2000/svg" xmlns:xlink="http://www.w3.org/1999/xlink">
    <!-- Generator: Sketch Beta 58 (84659) - https://sketch.com -->
    <title>Artboard Copy</title>
    <desc>Created with Sketch Beta.</desc>
    <g id="Artboard-Copy" stroke="none" stroke-width="1" fill="none" fill-rule="evenodd">
        <g id="Group" transform="translate(79.000000, 85.000000)">
            <rect id="Rectangle" fill="#22A5F7" x="0" y="0" width="86" height="30" rx="4"></rect>
            <rect id="Rectangle-Copy-4" fill="#1F88DE" x="106" y="0" width="86" height="30" rx="4"></rect>
            <path d="M37.742,17.388 L37.742,10.5 C37.742,10.188 37.478,9.924 37.166,9.924 C36.818,9.924 36.554,10.188 36.554,10.5 L36.554,15.924 L32.378,10.248 C32.234,10.044 31.982,9.924 31.742,9.924 C31.298,9.924 30.974,10.272 30.974,10.656 L30.974,17.484 C30.974,17.808 31.238,18.072 31.562,18.072 C31.898,18.072 32.162,17.808 32.162,17.484 L32.162,11.928 L36.434,17.772 C36.566,17.964 36.794,18.072 37.022,18.072 C37.442,18.072 37.742,17.736 37.742,17.388 Z M44.858,14.904 C44.858,14.676 44.798,14.424 44.75,14.232 C44.414,12.936 43.454,12.06 42.05,12.06 C40.37,12.06 39.158,13.416 39.158,15.096 C39.158,16.92 40.418,18.144 42.146,18.144 C42.878,18.144 44.366,17.82 44.366,17.172 C44.366,16.908 44.126,16.74 43.934,16.74 C43.85,16.74 43.766,16.764 43.694,16.8 C43.274,17.112 42.746,17.28 42.254,17.28 C41.078,17.28 40.358,16.44 40.274,15.444 L44.306,15.444 C44.606,15.444 44.858,15.192 44.858,14.904 Z M43.826,14.688 L40.274,14.688 C40.322,13.884 40.886,12.924 42.038,12.924 C43.274,12.924 43.802,13.908 43.826,14.688 Z M50.738,17.592 C50.738,17.484 50.702,17.388 50.654,17.304 L48.962,15.024 L50.51,12.912 C50.582,12.828 50.606,12.72 50.606,12.624 C50.606,12.372 50.378,12.132 50.102,12.132 C49.946,12.132 49.79,12.216 49.706,12.348 L48.302,14.304 L46.898,12.336 C46.802,12.204 46.646,12.132 46.502,12.132 C46.202,12.132 45.998,12.408 45.998,12.636 C45.998,12.732 46.034,12.816 46.094,12.9 L47.642,15.024 L45.974,17.304 C45.902,17.388 45.878,17.484 45.878,17.592 C45.878,17.856 46.118,18.084 46.37,18.084 C46.526,18.084 46.658,18.012 46.754,17.88 L48.302,15.732 L49.85,17.88 C49.934,18.012 50.09,18.084 50.234,18.084 C50.546,18.084 50.738,17.82 50.738,17.592 Z M54.818,17.58 C54.818,17.964 54.35,18.144 53.714,18.144 C52.802,18.144 52.322,17.64 52.322,16.728 L52.322,13.14 L51.758,13.14 C51.494,13.14 51.29,12.936 51.29,12.66 C51.29,12.408 51.494,12.204 51.758,12.204 L52.322,12.204 L52.322,11.064 C52.322,10.788 52.562,10.548 52.874,10.548 C53.162,10.548 53.402,10.788 53.402,11.064 L53.402,12.204 L54.194,12.204 C54.446,12.204 54.65,12.408 54.65,12.684 C54.65,12.936 54.446,13.14 54.194,13.14 L53.402,13.14 L53.402,16.476 C53.402,16.92 53.618,17.196 53.966,17.196 C54.098,17.196 54.242,17.136 54.362,17.136 C54.626,17.136 54.818,17.328 54.818,17.58 Z" id="Next" fill="#FFFFFF" fill-rule="nonzero"></path>
            <path d="M143.768,11.576 C143.768,11.264 143.504,11 143.192,11 C142.844,11 142.58,11.264 142.58,11.576 L142.58,17 L138.404,11.324 C138.26,11.12 138.008,11 137.768,11 C137.324,11 137,11.348 137,11.732 L137,18.56 C137,18.884 137.264,19.148 137.588,19.148 C137.924,19.148 138.188,18.884 138.188,18.56 L138.188,13.004 L142.46,18.848 C142.592,19.04 142.82,19.148 143.048,19.148 C143.468,19.148 143.768,18.812 143.768,18.464 L143.768,11.576 Z M150.884,15.98 C150.884,15.752 150.824,15.5 150.776,15.308 C150.44,14.012 149.48,13.136 148.076,13.136 C146.396,13.136 145.184,14.492 145.184,16.172 C145.184,17.996 146.444,19.22 148.172,19.22 C149.024,19.22 150.512,18.776 150.512,18.128 C150.512,17.72 150.104,17.624 149.84,17.756 C149.42,18.068 148.772,18.356 148.28,18.356 C147.104,18.356 146.384,17.552 146.3,16.556 L150.332,16.556 C150.632,16.556 150.884,16.268 150.884,15.98 Z M146.3,15.764 C146.348,14.96 146.912,14 148.064,14 C149.3,14 149.828,14.984 149.852,15.764 L146.3,15.764 Z M156.752,18.5 C156.728,18.44 156.704,18.38 156.668,18.32 L155.024,16.148 L156.608,14.06 C156.644,14 156.68,13.94 156.692,13.88 C156.764,13.616 156.608,13.316 156.284,13.232 C156.092,13.172 155.864,13.256 155.732,13.424 L154.328,15.344 L152.924,13.424 C152.792,13.256 152.564,13.172 152.36,13.232 C152.048,13.316 151.892,13.616 151.964,13.88 C151.976,13.94 152.012,14 152.048,14.06 L153.632,16.16 L152,18.32 C151.964,18.38 151.928,18.44 151.916,18.5 C151.844,18.764 152.012,19.088 152.324,19.148 C152.516,19.184 152.744,19.124 152.876,18.944 L154.328,16.964 L155.78,18.944 C155.912,19.124 156.152,19.184 156.344,19.148 C156.656,19.088 156.812,18.764 156.752,18.5 Z M160.844,18.656 C160.844,19.04 160.376,19.22 159.74,19.22 C158.828,19.22 158.348,18.716 158.348,17.804 L158.348,14.216 L157.784,14.216 C157.52,14.216 157.316,14.012 157.316,13.736 C157.316,13.484 157.52,13.28 157.784,13.28 L158.348,13.28 L158.348,12.14 C158.348,11.864 158.588,11.624 158.9,11.624 C159.188,11.624 159.428,11.864 159.428,12.14 L159.428,13.28 L160.22,13.28 C160.472,13.28 160.676,13.484 160.676,13.76 C160.676,14.012 160.472,14.216 160.22,14.216 L159.428,14.216 L159.428,17.552 C159.428,17.996 159.644,18.272 159.992,18.272 C160.124,18.272 160.268,18.212 160.388,18.212 C160.652,18.212 160.844,18.404 160.844,18.656 Z" id="Next" fill="#FFFFFF" fill-rule="nonzero"></path>
        </g>
    </g>
</svg>