<svg width="193" height="193" viewBox="0 0 193 193" fill="none" xmlns="http://www.w3.org/2000/svg">
<mask id="path-1-outside-1_2_32" maskUnits="userSpaceOnUse" x="0.262497" y="0.139984" width="192" height="192" fill="black">
<rect fill="white" x="0.262497" y="0.139984" width="192" height="192"/>
<path fill-rule="evenodd" clip-rule="evenodd" d="M53.8361 6.13998H6.2625V53.7136L48.6889 96.14L6.2625 138.566V186.14L53.8361 186.14L96.2625 143.714L138.689 186.14L186.262 186.14L186.262 138.566L143.836 96.14L186.262 53.7136L186.262 6.13998H138.689L96.2625 48.5664L53.8361 6.13998Z"/>
</mask>
<path d="M6.2625 6.13998V0.139984H0.262497V6.13998H6.2625ZM53.8361 6.13998L58.0787 1.89734L56.3214 0.139984H53.8361V6.13998ZM6.2625 53.7136H0.262497V56.1989L2.01986 57.9563L6.2625 53.7136ZM48.6889 96.14L52.9315 100.383L57.1742 96.14L52.9315 91.8974L48.6889 96.14ZM6.2625 138.566L2.01986 134.324L0.262497 136.081V138.566H6.2625ZM6.2625 186.14H0.262497V192.14L6.26249 192.14L6.2625 186.14ZM53.8361 186.14L53.8361 192.14L56.3214 192.14L58.0787 190.383L53.8361 186.14ZM96.2625 143.714L100.505 139.471L96.2625 135.228L92.0198 139.471L96.2625 143.714ZM138.689 186.14L134.446 190.383L136.204 192.14L138.689 192.14L138.689 186.14ZM186.262 186.14L186.263 192.14L192.262 192.14L192.262 186.14L186.262 186.14ZM186.262 138.566L192.262 138.566L192.262 136.081L190.505 134.324L186.262 138.566ZM143.836 96.14L139.593 91.8974L135.351 96.14L139.593 100.383L143.836 96.14ZM186.262 53.7136L190.505 57.9563L192.262 56.1989L192.262 53.7136L186.262 53.7136ZM186.262 6.13998L192.262 6.13999L192.262 0.139984H186.262V6.13998ZM138.689 6.13998V0.139984H136.204L134.446 1.89734L138.689 6.13998ZM96.2625 48.5664L92.0198 52.809L96.2625 57.0517L100.505 52.809L96.2625 48.5664ZM6.2625 12.14H53.8361V0.139984H6.2625V12.14ZM12.2625 53.7136V6.13998H0.262497V53.7136H12.2625ZM52.9315 91.8974L10.5051 49.471L2.01986 57.9563L44.4463 100.383L52.9315 91.8974ZM10.5051 142.809L52.9315 100.383L44.4463 91.8974L2.01986 134.324L10.5051 142.809ZM12.2625 186.14V138.566H0.262497V186.14H12.2625ZM53.8361 180.14L6.2625 180.14L6.26249 192.14L53.8361 192.14L53.8361 180.14ZM92.0198 139.471L49.5934 181.897L58.0787 190.383L100.505 147.956L92.0198 139.471ZM142.932 181.897L100.505 139.471L92.0198 147.956L134.446 190.383L142.932 181.897ZM186.262 180.14L138.689 180.14L138.689 192.14L186.263 192.14L186.262 180.14ZM180.262 138.566L180.262 186.14L192.262 186.14L192.262 138.566L180.262 138.566ZM190.505 134.324L148.079 91.8974L139.593 100.383L182.02 142.809L190.505 134.324ZM148.079 100.383L190.505 57.9563L182.02 49.471L139.593 91.8974L148.079 100.383ZM180.262 6.13998L180.262 53.7136L192.262 53.7136L192.262 6.13999L180.262 6.13998ZM138.689 12.14H186.262V0.139984H138.689V12.14ZM100.505 52.809L142.932 10.3826L134.446 1.89734L92.0198 44.3237L100.505 52.809ZM49.5934 10.3826L92.0198 52.809L100.505 44.3238L58.0787 1.89734L49.5934 10.3826Z" fill="#9B8EF8" mask="url(#path-1-outside-1_2_32)"/>
</svg>
