<?xml version="1.0" encoding="UTF-8"?>
<svg width="700px" height="400px" viewBox="0 0 700 400" version="1.1" xmlns="http://www.w3.org/2000/svg" xmlns:xlink="http://www.w3.org/1999/xlink">
    <!-- Generator: Sketch Beta 58 (84659) - https://sketch.com -->
    <title>Artboard</title>
    <desc>Created with Sketch Beta.</desc>
    <g id="Artboard" stroke="none" stroke-width="1" fill="none" fill-rule="evenodd">
        <g id="Resource-Usage-Copy" transform="translate(98.000000, 43.000000)">
            <rect id="Rectangle-4-Copy" fill="#FFFFFF" x="0" y="0" width="232" height="314" rx="4"></rect>
            <path d="M140,257.996491 C140,256.89386 140.898855,256 142.004923,256 L181.995077,256 C183.102365,256 184,256.887832 184,257.996491 L184,314 L140,314 L140,257.996491 Z" id="Selected-one" fill="#1F88DE" style="mix-blend-mode: multiply;"></path>
            <path d="M94,300.991884 C94,299.891797 94.8988551,299 96.0049233,299 L135.995077,299 C137.102365,299 138,299.893397 138,300.991884 L138,314 L94,314 L94,300.991884 Z" id="Selected-one-Copy" fill="#1F88DE"></path>
            <path d="M47,199 L47,314 L46,314 L46,199 L47,199 Z M93,199 L93,314 L92,314 L92,199 L93,199 Z M139,199 L139,314 L138,314 L138,199 L139,199 Z M186,199 L186,314 L185,314 L185,199 L186,199 Z" id="Combined-Shape" fill="#F3F4F5" style="mix-blend-mode: multiply;"></path>
            <path d="M115.749,211.37 C115.749,211.048 115.483,210.768 115.147,210.768 L111.297,210.768 L111.830643,210.349954 C114.088,208.559071 115.609,207.026 115.609,205.336 C115.609,203.474 114.027,202.522 112.361,202.522 C111.213,202.522 110.009,202.942 109.323,203.698 C109.225,203.81 109.183,203.95 109.183,204.076 C109.183,204.426 109.491,204.692 109.813,204.692 C109.925,204.692 110.037,204.66512 110.134664,204.597024 L110.205,204.538 C110.765,204.048 111.493,203.754 112.375,203.754 C113.285,203.754 114.209,204.244 114.209,205.336 C114.209,206.764 112.571,208.248 109.239,210.782 C109.071,210.922 108.973,211.118 108.973,211.328 C108.973,211.72 109.281,212 109.617,212 L115.147,212 C115.483,212 115.749,211.734 115.749,211.37 Z M120.607,211.398 L120.607,203.362 C120.607,202.928 120.229,202.592 119.809,202.592 C119.585,202.592 119.389,202.662 119.249,202.816 L117.219,204.874 C117.107,205 117.051,205.14 117.051,205.294 C117.051,205.63 117.345,205.882 117.639,205.882 C117.793,205.882 117.919,205.826 118.031,205.714 L119.221,204.482 L119.221,211.398 C119.221,211.776 119.529,212.084 119.907,212.084 C120.299,212.084 120.607,211.776 120.607,211.398 Z M112.246,223.484 L112.246,216.8 C112.246,216.272 111.754,215.924 111.214,215.948 C110.83,215.948 110.47,216.176 110.326,216.536 L108.202,221.696 L106.09,216.536 C105.922,216.116 105.49,215.924 105.046,215.948 C104.566,215.948 104.182,216.344 104.182,216.8 L104.182,223.484 C104.182,223.808 104.446,224.072 104.77,224.072 C105.106,224.072 105.37,223.808 105.37,223.484 L105.37,217.676 L107.902,223.88 C107.95,223.988 108.07,224.072 108.19,224.072 C108.346,224.072 108.454,223.988 108.502,223.88 L111.046,217.676 L111.046,223.484 C111.046,223.808 111.31,224.072 111.646,224.072 C111.982,224.072 112.246,223.808 112.246,223.484 Z M119.494,221.096 C119.494,219.428 118.378,218.06 116.566,218.06 C114.766,218.06 113.65,219.428 113.65,221.096 C113.65,222.764 114.766,224.144 116.566,224.144 C118.378,224.144 119.494,222.764 119.494,221.096 Z M118.378,221.096 C118.378,222.212 117.73,223.196 116.566,223.196 C115.414,223.196 114.754,222.212 114.754,221.096 C114.754,219.992 115.414,219.008 116.566,219.008 C117.73,219.008 118.378,219.992 118.378,221.096 Z M125.854,223.544 C125.854,223.832 125.614,224.072 125.314,224.072 C125.026,224.072 124.786,223.832 124.786,223.544 L124.786,220.28 C124.786,219.32 124.294,219.008 123.55,219.008 C122.866,219.008 122.254,219.416 121.942,219.86 L121.942,223.544 C121.942,223.832 121.702,224.072 121.402,224.072 C121.114,224.072 120.874,223.832 120.874,223.544 L120.874,218.648 C120.874,218.372 121.114,218.132 121.426,218.132 C121.702,218.132 121.942,218.372 121.942,218.648 L121.942,219.02 C122.338,218.552 123.106,218.06 123.994,218.06 C125.218,218.06 125.854,218.696 125.854,219.92 L125.854,223.544 Z" id="21Mon" fill="#9AA8B1" fill-rule="nonzero"></path>
            <path d="M20.298,211.398 L20.298,203.362 C20.298,202.928 19.92,202.592 19.5,202.592 C19.276,202.592 19.08,202.662 18.94,202.816 L16.91,204.874 C16.798,205 16.742,205.14 16.742,205.294 C16.742,205.63 17.036,205.882 17.33,205.882 C17.484,205.882 17.61,205.826 17.722,205.714 L18.912,204.482 L18.912,211.398 C18.912,211.776 19.22,212.084 19.598,212.084 C19.99,212.084 20.298,211.776 20.298,211.398 Z M29.02,207.324 C29.02,204.762 27.97,202.508 25.31,202.508 C23.238,202.508 21.95,203.922 21.95,205.602 C21.95,207.59 23.35,208.598 25.03,208.598 C26.192,208.598 27.2,207.856 27.606,207.212 C27.62,207.324 27.62,207.422 27.62,207.534 C27.62,209.27 26.766,210.922 25.072,210.922 C24.4,210.922 23.924,210.726 23.532,210.404 C23.434,210.334 23.308,210.292 23.168,210.292 C22.846,210.292 22.538,210.558 22.538,210.908 C22.538,211.048 22.594,211.174 22.678,211.272 C23.238,211.874 24.078,212.154 25.072,212.154 C27.732,212.154 29.02,209.942 29.02,207.324 Z M27.592,206.148 C27.088,206.89 26.262,207.408 25.394,207.408 C24.274,207.408 23.35,206.82 23.35,205.546 C23.35,204.72 24.022,203.74 25.366,203.74 C26.906,203.74 27.494,205.056 27.592,206.148 Z M21.038,221.792 C21.038,218.804 16.298,219.836 16.298,218.036 C16.298,217.28 16.982,216.764 17.942,216.764 C18.674,216.764 19.406,216.98 19.994,217.46 C20.078,217.532 20.186,217.568 20.282,217.568 C20.546,217.568 20.75,217.328 20.75,217.088 C20.75,216.956 20.69,216.824 20.582,216.728 C19.934,216.188 19.046,215.876 18.014,215.876 C16.442,215.876 15.266,216.776 15.266,218.096 C15.266,220.952 20.006,219.812 20.006,221.876 C20.006,222.488 19.55,223.256 18.122,223.256 C17.198,223.256 16.43,222.872 15.878,222.38 C15.794,222.308 15.686,222.284 15.59,222.284 C15.302,222.284 15.122,222.548 15.122,222.788 C15.122,222.92 15.17,223.052 15.278,223.148 C15.962,223.748 16.898,224.144 18.086,224.144 C20.246,224.144 21.038,222.956 21.038,221.792 Z M27.014,223.628 L27.014,220.016 C27.014,218.612 25.994,218.06 24.77,218.06 C23.942,218.06 23.222,218.312 22.61,218.864 C22.526,218.936 22.49,219.032 22.49,219.128 C22.49,219.344 22.694,219.488 22.886,219.488 C22.97,219.488 23.066,219.452 23.138,219.392 C23.582,219.02 24.074,218.84 24.65,218.84 C25.49,218.84 26.114,219.284 26.114,220.064 L26.114,221.108 C25.646,220.568 24.986,220.316 24.194,220.316 C23.21,220.316 22.166,220.928 22.166,222.224 C22.166,223.484 23.21,224.144 24.194,224.144 C24.974,224.144 25.634,223.868 26.114,223.34 L26.114,223.604 C26.114,223.856 26.306,224.072 26.558,224.072 C26.81,224.072 27.014,223.868 27.014,223.628 Z M26.114,222.776 C25.766,223.256 25.154,223.496 24.518,223.496 C23.678,223.496 23.09,222.968 23.09,222.236 C23.09,221.492 23.678,220.964 24.518,220.964 C25.154,220.964 25.766,221.204 26.114,221.684 L26.114,222.776 Z M31.346,223.628 C31.346,224.012 30.794,224.144 30.278,224.144 C29.426,224.144 28.994,223.652 28.994,222.788 L28.994,218.996 L28.346,218.996 C28.13,218.996 27.962,218.828 27.962,218.588 C27.962,218.372 28.13,218.204 28.346,218.204 L28.994,218.204 L28.994,216.98 C28.994,216.752 29.198,216.548 29.462,216.548 C29.69,216.548 29.894,216.752 29.894,216.98 L29.894,218.204 L30.758,218.204 C30.974,218.204 31.142,218.372 31.142,218.612 C31.142,218.828 30.974,218.996 30.758,218.996 L29.894,218.996 L29.894,222.596 C29.894,223.028 30.086,223.34 30.482,223.34 C30.638,223.34 30.818,223.256 30.962,223.256 C31.166,223.256 31.346,223.424 31.346,223.628 Z" id="19Sat" fill="#9AA8B1" fill-rule="nonzero"></path>
            <path d="M68.457,211.37 C68.457,211.048 68.191,210.768 67.855,210.768 L64.005,210.768 L64.5386429,210.349954 C66.796,208.559071 68.317,207.026 68.317,205.336 C68.317,203.474 66.735,202.522 65.069,202.522 C63.921,202.522 62.717,202.942 62.031,203.698 C61.933,203.81 61.891,203.95 61.891,204.076 C61.891,204.426 62.199,204.692 62.521,204.692 C62.633,204.692 62.745,204.66512 62.842664,204.597024 L62.913,204.538 C63.473,204.048 64.201,203.754 65.083,203.754 C65.993,203.754 66.917,204.244 66.917,205.336 C66.917,206.764 65.279,208.248 61.947,210.782 C61.779,210.922 61.681,211.118 61.681,211.328 C61.681,211.72 61.989,212 62.325,212 L67.855,212 C68.191,212 68.457,211.734 68.457,211.37 Z M77.291,207.338 C77.291,205.028 76.213,202.522 73.637,202.522 C71.047,202.522 69.983,205.028 69.983,207.338 C69.983,209.648 71.047,212.168 73.637,212.168 C76.213,212.168 77.291,209.648 77.291,207.338 Z M75.877,207.338 C75.877,209.158 75.289,210.936 73.637,210.936 C71.971,210.936 71.397,209.158 71.397,207.338 C71.397,205.518 71.971,203.754 73.637,203.754 C75.289,203.754 75.877,205.518 75.877,207.338 Z M65.828,221.732 C65.828,218.744 61.124,219.728 61.124,218.072 C61.124,217.388 61.736,216.92 62.636,216.92 C63.332,216.92 64.028,217.124 64.616,217.556 C64.712,217.628 64.832,217.664 64.94,217.664 C65.24,217.664 65.504,217.412 65.504,217.112 C65.504,216.98 65.456,216.836 65.348,216.74 C64.748,216.188 63.728,215.876 62.732,215.876 C61.076,215.876 59.9,216.836 59.9,218.156 C59.9,221.048 64.604,219.956 64.604,221.852 C64.604,222.416 64.148,223.1 62.852,223.1 C61.976,223.1 61.232,222.752 60.68,222.284 C60.584,222.212 60.452,222.176 60.344,222.176 C60.02,222.176 59.792,222.464 59.792,222.764 C59.792,222.896 59.84,223.028 59.936,223.136 C60.56,223.748 61.628,224.144 62.804,224.144 C64.964,224.144 65.828,222.98 65.828,221.732 Z M72.176,223.544 L72.176,218.648 C72.176,218.372 71.936,218.132 71.66,218.132 C71.348,218.132 71.108,218.372 71.108,218.648 L71.108,222.368 C70.784,222.812 70.172,223.196 69.5,223.196 C68.756,223.196 68.264,222.896 68.264,221.936 L68.264,218.648 C68.264,218.372 68.024,218.132 67.748,218.132 C67.436,218.132 67.196,218.372 67.196,218.648 L67.196,222.308 C67.196,223.532 67.82,224.144 69.044,224.144 C69.932,224.144 70.676,223.7 71.108,223.208 L71.108,223.544 C71.108,223.832 71.348,224.072 71.636,224.072 C71.936,224.072 72.176,223.832 72.176,223.544 Z M78.884,223.544 C78.884,223.832 78.644,224.072 78.344,224.072 C78.056,224.072 77.816,223.832 77.816,223.544 L77.816,220.28 C77.816,219.32 77.324,219.008 76.58,219.008 C75.896,219.008 75.284,219.416 74.972,219.86 L74.972,223.544 C74.972,223.832 74.732,224.072 74.432,224.072 C74.144,224.072 73.904,223.832 73.904,223.544 L73.904,218.648 C73.904,218.372 74.144,218.132 74.456,218.132 C74.732,218.132 74.972,218.372 74.972,218.648 L74.972,219.02 C75.368,218.552 76.136,218.06 77.024,218.06 C78.248,218.06 78.884,218.696 78.884,219.92 L78.884,223.544 Z" id="20Sun" fill="#9AA8B1" fill-rule="nonzero"></path>
            <path d="M161.618,211.37 C161.618,211.048 161.352,210.768 161.016,210.768 L157.166,210.768 L157.699643,210.349954 C159.957,208.559071 161.478,207.026 161.478,205.336 C161.478,203.474 159.896,202.522 158.23,202.522 C157.082,202.522 155.878,202.942 155.192,203.698 C155.094,203.81 155.052,203.95 155.052,204.076 C155.052,204.426 155.36,204.692 155.682,204.692 C155.794,204.692 155.906,204.66512 156.003664,204.597024 L156.074,204.538 C156.634,204.048 157.362,203.754 158.244,203.754 C159.154,203.754 160.078,204.244 160.078,205.336 C160.078,206.764 158.44,208.248 155.108,210.782 C154.94,210.922 154.842,211.118 154.842,211.328 C154.842,211.72 155.15,212 155.486,212 L161.016,212 C161.352,212 161.618,211.734 161.618,211.37 Z M169.892,211.37 C169.892,211.048 169.626,210.768 169.29,210.768 L165.44,210.768 L165.973643,210.349954 C168.231,208.559071 169.752,207.026 169.752,205.336 C169.752,203.474 168.17,202.522 166.504,202.522 C165.356,202.522 164.152,202.942 163.466,203.698 C163.368,203.81 163.326,203.95 163.326,204.076 C163.326,204.426 163.634,204.692 163.956,204.692 C164.068,204.692 164.18,204.66512 164.277664,204.597024 L164.348,204.538 C164.908,204.048 165.636,203.754 166.518,203.754 C167.428,203.754 168.352,204.244 168.352,205.336 C168.352,206.764 166.714,208.248 163.382,210.782 C163.214,210.922 163.116,211.118 163.116,211.328 C163.116,211.72 163.424,212 163.76,212 L169.29,212 C169.626,212 169.892,211.734 169.892,211.37 Z M158.936,216.536 C158.936,216.224 158.708,215.996 158.42,215.996 L153.152,215.996 C152.864,215.996 152.636,216.224 152.636,216.512 C152.636,216.812 152.864,217.052 153.152,217.052 L155.192,217.052 L155.192,223.484 C155.192,223.808 155.456,224.072 155.78,224.072 C156.116,224.072 156.38,223.808 156.38,223.484 L156.38,217.052 L158.42,217.052 C158.708,217.052 158.936,216.812 158.936,216.536 Z M165.068,223.544 L165.068,218.648 C165.068,218.372 164.828,218.132 164.552,218.132 C164.24,218.132 164,218.372 164,218.648 L164,222.368 C163.676,222.812 163.064,223.196 162.392,223.196 C161.648,223.196 161.156,222.896 161.156,221.936 L161.156,218.648 C161.156,218.372 160.916,218.132 160.64,218.132 C160.328,218.132 160.088,218.372 160.088,218.648 L160.088,222.308 C160.088,223.532 160.712,224.144 161.936,224.144 C162.824,224.144 163.568,223.7 164,223.208 L164,223.544 C164,223.832 164.24,224.072 164.528,224.072 C164.828,224.072 165.068,223.832 165.068,223.544 Z M172.148,220.904 C172.148,220.676 172.088,220.424 172.04,220.232 C171.704,218.936 170.744,218.06 169.34,218.06 C167.66,218.06 166.448,219.416 166.448,221.096 C166.448,222.92 167.708,224.144 169.436,224.144 C170.168,224.144 171.656,223.82 171.656,223.172 C171.656,222.908 171.416,222.74 171.224,222.74 C171.14,222.74 171.056,222.764 170.984,222.8 C170.564,223.112 170.036,223.28 169.544,223.28 C168.368,223.28 167.648,222.44 167.564,221.444 L171.596,221.444 C171.896,221.444 172.148,221.192 172.148,220.904 Z M171.116,220.688 L167.564,220.688 C167.612,219.884 168.176,218.924 169.328,218.924 C170.564,218.924 171.092,219.908 171.116,220.688 Z" id="22Tue" fill="#9AA8B1" fill-rule="nonzero"></path>
            <path d="M209.884,211.244 C209.884,210.852 209.548,210.53 209.156,210.53 L205.698,210.53 L206.217418,210.133158 C208.404071,208.435 209.744,207.005 209.744,205.406 C209.744,203.544 208.162,202.522 206.328,202.522 C205.166,202.522 203.794,202.984 203.22,203.712 C203.136,203.838 203.094,203.978 203.094,204.104 C203.094,204.538 203.444,204.86 203.836,204.86 C204.004,204.86 204.158,204.804 204.312,204.692 C204.858,204.258 205.544,204.006 206.356,204.006 C207.21,204.006 208.036,204.454 208.036,205.406 C208.036,206.694 206.65,207.94 203.248,210.502 C203.024,210.67 202.912,210.922 202.912,211.188 C202.912,211.664 203.29,212 203.682,212 L209.156,212 C209.548,212 209.884,211.678 209.884,211.244 Z M218.046,209.452 C218.046,208.01 216.786,207.268 215.876,207.184 C216.856,207.016 217.906,206.274 217.906,205.042 C217.906,203.474 216.548,202.522 214.518,202.522 C213.335,202.522 212.393429,202.872071 211.670867,203.448913 L211.508,203.586 C211.34,203.712 211.256,203.894 211.256,204.09 C211.256,204.496 211.634,204.79 211.984,204.79 C212.138,204.79 212.278,204.748 212.404,204.664 C212.978,204.23 213.622,204.006 214.364,204.006 C215.4,204.006 216.226,204.44 216.226,205.294 C216.226,206.288 215.204,206.54 213.916,206.498 C213.468,206.498 213.16,206.82 213.16,207.226 C213.16,207.856 213.72,208.038 214.336,207.982 C215.666,207.982 216.38,208.374 216.38,209.284 C216.38,210.124 215.68,210.684 214.462,210.684 C213.706,210.684 212.936,210.418 212.32,209.956 C212.194,209.872 212.04,209.816 211.886,209.816 C211.494,209.816 211.144,210.166 211.144,210.572 C211.144,210.712 211.186,210.824 211.27,210.936 C211.788,211.664 213.16,212.168 214.504,212.168 C216.674,212.168 218.046,211.034 218.046,209.452 Z M208.646,216.428 C208.646,216.152 208.418,215.936 208.118,215.936 C207.878,215.936 207.662,216.092 207.602,216.32 L205.922,222.668 L204.17,216.296 C204.11,216.08 203.906,215.924 203.678,215.924 C203.426,215.924 203.234,216.08 203.174,216.296 L201.422,222.668 L199.73,216.32 C199.67,216.08 199.442,215.924 199.202,215.924 C198.89,215.924 198.686,216.176 198.686,216.428 C198.686,216.476 198.698,216.524 198.71,216.572 L200.702,223.592 C200.766,223.837333 200.962741,224.025778 201.233226,224.064626 L201.35,224.072 C201.674,224.072 201.926,223.868 202.01,223.58 L203.666,217.544 L205.31,223.58 C205.374,223.825333 205.580222,224.023259 205.844387,224.064214 L205.958,224.072 C206.27,224.072 206.546,223.868 206.63,223.58 L208.622,216.572 C208.634,216.524 208.646,216.476 208.646,216.428 Z M215.162,220.904 C215.162,220.7 215.114,220.484 215.078,220.304 C214.778,218.972 213.83,218.06 212.39,218.06 C210.734,218.06 209.534,219.416 209.534,221.096 C209.534,222.908 210.77,224.144 212.486,224.144 C213.194,224.144 214.694,223.796 214.694,223.172 C214.694,222.944 214.49,222.8 214.334,222.8 C214.262,222.8 214.19,222.824 214.13,222.86 C213.674,223.22 213.122,223.4 212.57,223.4 C211.322,223.4 210.554,222.488 210.482,221.396 L214.67,221.396 C214.946,221.396 215.162,221.168 215.162,220.904 Z M214.286,220.736 L210.482,220.736 C210.53,219.848 211.142,218.804 212.378,218.804 C213.698,218.804 214.274,219.872 214.286,220.736 Z M221.726,223.628 L221.726,216.356 C221.726,216.128 221.522,215.924 221.294,215.924 C221.03,215.924 220.826,216.128 220.826,216.356 L220.826,219.08 C220.358,218.444 219.65,218.06 218.87,218.06 C217.346,218.06 216.29,219.26 216.29,221.108 C216.29,222.992 217.358,224.144 218.87,224.144 C219.686,224.144 220.394,223.724 220.826,223.136 L220.826,223.628 C220.826,223.868 221.03,224.072 221.27,224.072 C221.522,224.072 221.726,223.868 221.726,223.628 Z M220.826,222.428 C220.502,222.932 219.806,223.34 219.086,223.34 C217.922,223.34 217.226,222.392 217.226,221.108 C217.226,219.824 217.922,218.864 219.086,218.864 C219.806,218.864 220.502,219.296 220.826,219.8 L220.826,222.428 Z" id="23Wed" fill="#0084D6" fill-rule="nonzero"></path>
            <path d="M80.4,59.671 C80.4,57.214 78.645,55.329 75.954,55.329 L73.77,55.329 C73.341,55.329 72.99,55.68 72.99,56.109 L72.99,63.22 C72.99,63.649 73.341,64 73.77,64 L75.954,64 C78.645,64 80.4,62.141 80.4,59.671 Z M79.282,59.671 C79.282,61.53 78.06,63.038 75.954,63.038 L74.069,63.038 L74.069,56.291 L75.954,56.291 C78.099,56.291 79.282,57.799 79.282,59.671 Z M87.264,63.597 L87.264,58.111 C87.264,57.864 87.043,57.643 86.796,57.643 C86.51,57.643 86.289,57.864 86.289,58.111 L86.289,62.336 C85.925,62.843 85.197,63.285 84.43,63.285 C83.585,63.285 83.026,62.96 83.026,61.855 L83.026,58.111 C83.026,57.864 82.805,57.643 82.558,57.643 C82.272,57.643 82.051,57.864 82.051,58.111 L82.051,62.154 C82.051,63.519 82.74,64.156 84.053,64.156 C84.989,64.156 85.808,63.662 86.289,63.116 L86.289,63.597 C86.289,63.857 86.51,64.078 86.77,64.078 C87.043,64.078 87.264,63.857 87.264,63.597 Z M94.947,60.646 C94.947,60.425 94.895,60.191 94.856,59.996 C94.531,58.553 93.504,57.565 91.944,57.565 C90.15,57.565 88.85,59.034 88.85,60.854 C88.85,62.817 90.189,64.156 92.048,64.156 C92.815,64.156 94.44,63.779 94.44,63.103 C94.44,62.856 94.219,62.7 94.05,62.7 C93.972,62.7 93.894,62.726 93.829,62.765 C93.335,63.155 92.737,63.35 92.139,63.35 C90.787,63.35 89.955,62.362 89.877,61.179 L94.414,61.179 C94.713,61.179 94.947,60.932 94.947,60.646 Z M93.998,60.464 L89.877,60.464 C89.929,59.502 90.592,58.371 91.931,58.371 C93.361,58.371 93.985,59.528 93.998,60.464 Z M102.305,63.545 L102.305,55.849 C102.305,55.511 102.019,55.264 101.694,55.264 C101.525,55.264 101.369,55.316 101.265,55.433 L99.432,57.305 C99.341,57.396 99.302,57.513 99.302,57.63 C99.302,57.903 99.536,58.098 99.77,58.098 C99.887,58.098 99.991,58.059 100.082,57.968 L101.226,56.759 L101.226,63.545 C101.226,63.844 101.46,64.078 101.759,64.078 C102.071,64.078 102.305,63.844 102.305,63.545 Z M110.612,59.671 C110.612,57.552 109.663,55.199 107.297,55.199 C104.918,55.199 103.982,57.552 103.982,59.671 C103.982,61.777 104.918,64.156 107.297,64.156 C109.663,64.156 110.612,61.777 110.612,59.671 Z M109.507,59.671 C109.507,61.4 108.948,63.194 107.297,63.194 C105.646,63.194 105.087,61.4 105.087,59.671 C105.087,57.942 105.646,56.161 107.297,56.161 C108.948,56.161 109.507,57.942 109.507,59.671 Z M115.019,55.29 C115.019,55.108 114.863,54.926 114.655,54.926 C114.499,54.926 114.369,55.017 114.317,55.16 L111.392,63.922 C111.379,63.961 111.366,64 111.366,64.039 C111.366,64.234 111.535,64.403 111.743,64.403 C111.899,64.403 112.029,64.312 112.081,64.169 L115.006,55.407 C115.019,55.368 115.019,55.329 115.019,55.29 Z M118.516,63.545 L118.516,55.849 C118.516,55.511 118.23,55.264 117.905,55.264 C117.736,55.264 117.58,55.316 117.476,55.433 L115.643,57.305 C115.552,57.396 115.513,57.513 115.513,57.63 C115.513,57.903 115.747,58.098 115.981,58.098 C116.098,58.098 116.202,58.059 116.293,57.968 L117.437,56.759 L117.437,63.545 C117.437,63.844 117.671,64.078 117.97,64.078 C118.282,64.078 118.516,63.844 118.516,63.545 Z M126.823,59.671 C126.823,57.552 125.874,55.199 123.508,55.199 C121.129,55.199 120.193,57.552 120.193,59.671 C120.193,61.777 121.129,64.156 123.508,64.156 C125.874,64.156 126.823,61.777 126.823,59.671 Z M125.718,59.671 C125.718,61.4 125.159,63.194 123.508,63.194 C121.857,63.194 121.298,61.4 121.298,59.671 C121.298,57.942 121.857,56.161 123.508,56.161 C125.159,56.161 125.718,57.942 125.718,59.671 Z M131.23,55.29 C131.23,55.108 131.074,54.926 130.866,54.926 C130.71,54.926 130.58,55.017 130.528,55.16 L127.603,63.922 C127.59,63.961 127.577,64 127.577,64.039 C127.577,64.234 127.746,64.403 127.954,64.403 C128.11,64.403 128.24,64.312 128.292,64.169 L131.217,55.407 C131.23,55.368 131.23,55.329 131.23,55.29 Z M138.068,63.506 C138.068,63.246 137.86,63.038 137.6,63.038 L133.739,63.038 L134.493285,62.4334876 C136.520834,60.7797806 137.951,59.3255714 137.951,57.747 C137.951,56.018 136.482,55.199 135.039,55.199 C133.973,55.199 132.985,55.563 132.27,56.278 C132.179,56.369 132.14,56.499 132.14,56.616 C132.14,56.889 132.387,57.097 132.634,57.097 C132.738,57.097 132.855,57.058 132.946,56.967 C133.466,56.46 134.181,56.161 135.039,56.161 C135.936,56.161 136.846,56.642 136.846,57.747 C136.846,59.203 135.156,60.724 132.114,63.077 C131.984,63.181 131.919,63.324 131.919,63.48 C131.919,63.779 132.166,64 132.413,64 L137.6,64 C137.86,64 138.068,63.792 138.068,63.506 Z M146.271,59.671 C146.271,57.552 145.322,55.199 142.956,55.199 C140.577,55.199 139.641,57.552 139.641,59.671 C139.641,61.777 140.577,64.156 142.956,64.156 C145.322,64.156 146.271,61.777 146.271,59.671 Z M145.166,59.671 C145.166,61.4 144.607,63.194 142.956,63.194 C141.305,63.194 140.746,61.4 140.746,59.671 C140.746,57.942 141.305,56.161 142.956,56.161 C144.607,56.161 145.166,57.942 145.166,59.671 Z M150.327,63.545 L150.327,55.849 C150.327,55.511 150.041,55.264 149.716,55.264 C149.547,55.264 149.391,55.316 149.287,55.433 L147.454,57.305 C147.363,57.396 147.324,57.513 147.324,57.63 C147.324,57.903 147.558,58.098 147.792,58.098 C147.909,58.098 148.013,58.059 148.104,57.968 L149.248,56.759 L149.248,63.545 C149.248,63.844 149.482,64.078 149.781,64.078 C150.093,64.078 150.327,63.844 150.327,63.545 Z M158.387,61.322 C158.387,59.476 157.113,58.553 155.553,58.553 C154.435,58.553 153.473,59.307 153.096,59.905 C153.083,59.788 153.083,59.684 153.083,59.567 C153.083,57.864 153.85,56.161 155.527,56.161 C156.229,56.161 156.684,56.382 157.061,56.72 C157.152,56.798 157.269,56.837 157.386,56.837 C157.646,56.837 157.867,56.616 157.867,56.356 C157.867,56.239 157.828,56.122 157.737,56.031 C157.152,55.472 156.476,55.199 155.527,55.199 C153.096,55.199 152.004,57.331 152.004,59.684 C152.004,62.037 152.927,64.156 155.345,64.156 C157.243,64.156 158.387,62.83 158.387,61.322 Z M157.295,61.361 C157.295,62.193 156.645,63.194 155.306,63.194 C153.798,63.194 153.226,61.868 153.122,60.789 C153.603,60.022 154.435,59.489 155.293,59.489 C156.411,59.489 157.295,60.087 157.295,61.361 Z" id="Due10/10/2016" fill="#343536" fill-rule="nonzero"></path>
            <path d="M88.414,31.186 C85.853,31.186 83.864,33.006 83.864,35.671 C83.864,38.336 85.853,40.156 88.414,40.156 C89.831,40.156 90.806,39.558 91.469,38.804 C91.573,38.674 91.625,38.505 91.625,38.349 C91.625,37.972 91.313,37.647 90.91,37.647 C90.702,37.647 90.494,37.738 90.338,37.894 C89.844,38.466 89.129,38.778 88.414,38.778 C86.711,38.778 85.45,37.465 85.45,35.671 C85.45,33.864 86.711,32.564 88.414,32.564 C89.129,32.564 89.844,32.902 90.338,33.461 C90.494,33.63 90.702,33.708 90.897,33.708 C91.3,33.708 91.638,33.396 91.638,32.993 C91.638,32.837 91.573,32.668 91.469,32.538 C90.806,31.784 89.831,31.186 88.414,31.186 Z M98.723,39.389 L98.723,34.319 C98.723,33.955 98.411,33.643 98.047,33.643 C97.631,33.643 97.332,33.955 97.332,34.319 L97.332,38.115 C97.007,38.531 96.422,38.921 95.733,38.921 C94.979,38.921 94.485,38.622 94.485,37.66 L94.485,34.319 C94.485,33.955 94.173,33.643 93.809,33.643 C93.393,33.643 93.094,33.955 93.094,34.319 L93.094,38.167 C93.094,39.441 93.757,40.156 95.109,40.156 C96.097,40.156 96.877,39.675 97.332,39.168 L97.332,39.389 C97.332,39.766 97.631,40.078 98.021,40.078 C98.411,40.078 98.723,39.766 98.723,39.389 Z M103.975,34.241 C103.975,33.903 103.741,33.643 103.364,33.643 C102.701,33.643 102.207,34.189 101.869,34.644 L101.869,34.319 C101.869,33.955 101.557,33.643 101.193,33.643 C100.777,33.643 100.478,33.955 100.478,34.319 L100.478,39.389 C100.478,39.766 100.777,40.078 101.154,40.078 L101.18,40.078 C101.557,40.078 101.869,39.766 101.869,39.389 L101.869,35.736 C102.207,35.255 102.74,35.021 103.299,34.969 C103.689,34.917 103.975,34.657 103.975,34.241 Z M108.499,34.241 C108.499,33.903 108.265,33.643 107.888,33.643 C107.225,33.643 106.731,34.189 106.393,34.644 L106.393,34.319 C106.393,33.955 106.081,33.643 105.717,33.643 C105.301,33.643 105.002,33.955 105.002,34.319 L105.002,39.389 C105.002,39.766 105.301,40.078 105.678,40.078 L105.704,40.078 C106.081,40.078 106.393,39.766 106.393,39.389 L106.393,35.736 C106.731,35.255 107.264,35.021 107.823,34.969 C108.213,34.917 108.499,34.657 108.499,34.241 Z M115.402,36.633 C115.402,36.36 115.324,36.061 115.246,35.801 C114.856,34.449 113.79,33.565 112.321,33.565 C110.462,33.565 109.136,35.034 109.136,36.854 C109.136,38.843 110.54,40.156 112.425,40.156 L112.675129,40.1471003 C113.523426,40.0905578 114.843,39.7629048 114.843,39.116 C114.843,38.778 114.544,38.544 114.258,38.544 C114.167,38.544 114.063,38.57 113.972,38.622 C113.543,38.895 113.023,39.038 112.568,39.038 C111.398,39.038 110.683,38.245 110.592,37.309 L114.726,37.309 C115.103,37.309 115.402,36.997 115.402,36.633 Z M114.063,36.347 L110.579,36.347 C110.644,35.593 111.177,34.683 112.321,34.683 C113.543,34.683 114.037,35.619 114.063,36.347 Z M122.396,39.389 L122.396,35.58 C122.396,34.306 121.72,33.565 120.368,33.565 C119.367,33.565 118.574,34.085 118.158,34.579 L118.158,34.319 C118.158,33.955 117.846,33.643 117.482,33.643 C117.066,33.643 116.767,33.955 116.767,34.319 L116.767,39.389 C116.767,39.766 117.066,40.078 117.456,40.078 C117.846,40.078 118.158,39.766 118.158,39.389 L118.158,35.632 C118.457,35.203 119.055,34.8 119.744,34.8 C120.511,34.8 121.005,35.125 121.005,36.087 L121.005,39.389 C121.005,39.766 121.304,40.078 121.694,40.078 C122.084,40.078 122.396,39.766 122.396,39.389 Z M127.31,39.48 C127.31,39.142 127.076,38.882 126.699,38.882 C126.621,38.882 126.504,38.921 126.413,38.921 C126.088,38.921 125.815,38.661 125.815,38.18 L125.815,34.943 L126.582,34.943 C126.907,34.943 127.167,34.67 127.167,34.345 C127.167,33.994 126.907,33.721 126.582,33.721 L125.815,33.721 L125.815,32.616 C125.815,32.239 125.516,31.927 125.139,31.927 C124.736,31.927 124.424,32.239 124.424,32.616 L124.424,33.721 L123.904,33.721 C123.579,33.721 123.306,33.994 123.306,34.319 C123.306,34.67 123.579,34.943 123.904,34.943 L124.424,34.943 L124.424,38.531 C124.424,39.584 124.983,40.156 126.049,40.156 C126.933,40.156 127.31,39.896 127.31,39.48 Z M138.633,37.66 C138.633,36.594 137.879,35.671 136.956,35.528 C137.762,35.359 138.464,34.631 138.464,33.539 C138.464,32.33 137.593,31.329 135.994,31.329 L132.64,31.329 C132.12,31.329 131.704,31.758 131.704,32.265 L131.704,39.064 C131.704,39.571 132.12,40 132.64,40 L136.111,40 C137.736,40 138.633,38.999 138.633,37.66 Z M136.878,33.799 C136.878,34.436 136.436,34.904 135.669,34.904 L133.251,34.904 L133.251,32.681 L135.669,32.681 C136.436,32.681 136.878,33.162 136.878,33.799 Z M137.047,37.452 C137.047,38.193 136.553,38.648 135.734,38.648 L133.251,38.648 L133.251,36.256 L135.734,36.256 C136.592,36.256 137.047,36.815 137.047,37.452 Z M140.804,31.251 C140.336,31.251 139.946,31.628 139.946,32.096 C139.946,32.577 140.336,32.954 140.804,32.954 C141.272,32.954 141.662,32.577 141.662,32.096 C141.662,31.628 141.272,31.251 140.804,31.251 Z M141.506,39.389 L141.506,34.319 C141.506,33.955 141.194,33.643 140.83,33.643 C140.414,33.643 140.115,33.955 140.115,34.319 L140.115,39.389 C140.115,39.766 140.414,40.078 140.804,40.078 C141.194,40.078 141.506,39.766 141.506,39.389 Z M144.652,39.389 L144.652,31.927 C144.652,31.563 144.34,31.251 143.976,31.251 C143.56,31.251 143.261,31.563 143.261,31.927 L143.261,39.389 C143.261,39.766 143.56,40.078 143.95,40.078 C144.34,40.078 144.652,39.766 144.652,39.389 Z M147.798,39.389 C147.798,39.766 147.486,40.078 147.096,40.078 C146.706,40.078 146.407,39.766 146.407,39.389 L146.407,31.927 C146.407,31.563 146.706,31.251 147.122,31.251 C147.486,31.251 147.798,31.563 147.798,31.927 L147.798,39.389 Z" id="CurrentBill" fill="#343536" fill-rule="nonzero"></path>
            <path d="M67.5,136.376 C67.5,131.696 63.576,130.292 59.868,129.248 L59.868,121.436 C61.488,121.652 62.928,122.228 64.332,123.416 C64.584,123.632 64.908,123.74 65.196,123.74 C65.988,123.74 66.6,123.056 66.6,122.264 C66.6,121.868 66.456,121.472 66.132,121.22 C64.368,119.708 62.388,118.952 59.868,118.7 L59.868,116.18 C59.868,115.604 59.4,115.136 58.824,115.136 C58.14,115.136 57.672,115.604 57.672,116.18 L57.672,118.664 C53.316,118.916 50.184,121.544 50.184,125.288 C50.184,129.716 54,130.94 57.672,131.948 L57.672,140.732 C55.368,140.48 53.424,139.436 51.984,138.176 C51.732,137.96 51.444,137.852 51.12,137.852 C50.328,137.852 49.752,138.644 49.752,139.364 C49.752,139.76 49.896,140.156 50.22,140.444 C52.056,142.1 54.576,143.216 57.672,143.396 L57.672,145.772 C57.672,146.348 58.14,146.816 58.824,146.816 C59.4,146.816 59.868,146.348 59.868,145.772 L59.868,143.396 C65.412,142.964 67.5,139.652 67.5,136.376 Z M57.672,121.328 L57.672,128.672 L57.2048737,128.531007 C54.9812529,127.840216 53.28,126.993935 53.28,125.108 C53.28,122.984 55.08,121.508 57.672,121.328 Z M64.404,136.628 C64.404,138.32 63.288,140.372 59.868,140.732 L59.868,132.56 L60.3342246,132.704562 C62.632125,133.442844 64.404,134.43425 64.404,136.628 Z M87.912,141.632 C87.912,140.912 87.336,140.336 86.616,140.336 L75.924,140.336 L77.0234444,139.461451 C83.1566667,134.546667 87.588,130.308 87.588,125.684 C87.588,120.896 83.52,118.628 79.524,118.628 C76.572,118.628 73.836,119.636 71.856,121.616 C71.604,121.868 71.496,122.228 71.496,122.552 C71.496,123.308 72.18,123.884 72.864,123.884 C73.152,123.884 73.476,123.776 73.728,123.524 C75.168,122.12 77.148,121.292 79.524,121.292 C82.008,121.292 84.528,122.624 84.528,125.684 C84.528,129.716 79.848,133.928 71.424,140.444 C71.064,140.732 70.884,141.128 70.884,141.56 C70.884,142.388 71.568,143 72.252,143 L86.616,143 C87.336,143 87.912,142.424 87.912,141.632 Z M110.62607,131.285901 L110.628,131.012 C110.628,125.144 108,118.628 101.448,118.628 C94.86,118.628 92.268,125.144 92.268,131.012 C92.268,136.844 94.86,143.432 101.448,143.432 C107.897625,143.432 110.544917,137.048267 110.62607,131.285901 L110.62607,131.285901 Z M107.566456,130.750724 L107.568,131.012 C107.568,135.8 106.02,140.768 101.448,140.768 C96.876,140.768 95.328,135.8 95.328,131.012 C95.328,126.224 96.876,121.292 101.448,121.292 C105.936873,121.292 107.510709,126.046285 107.566456,130.750724 L107.566456,130.750724 Z M131.976,135.584 C131.976,130.472 128.448,127.916 124.128,127.916 C121.032,127.916 118.368,130.004 117.324,131.66 C117.288,131.336 117.288,131.048 117.288,130.724 C117.288,126.008 119.412,121.292 124.056,121.292 C126,121.292 127.26,121.904 128.304,122.84 C128.556,123.056 128.88,123.164 129.204,123.164 C129.924,123.164 130.536,122.552 130.536,121.832 C130.536,121.508 130.428,121.184 130.176,120.932 C128.556,119.384 126.684,118.628 124.056,118.628 C117.324,118.628 114.3,124.532 114.3,131.048 C114.3,137.564 116.856,143.432 123.552,143.432 C128.808,143.432 131.976,139.76 131.976,135.584 Z M128.952,135.692 C128.952,137.996 127.152,140.768 123.444,140.768 C119.268,140.768 117.684,137.096 117.396,134.108 C118.728,131.984 121.032,130.508 123.408,130.508 C126.504,130.508 128.952,132.164 128.952,135.692 Z M139.86,141.38 C139.86,140.3 138.96,139.4 137.88,139.4 C136.8,139.4 135.9,140.3 135.9,141.38 C135.9,142.46 136.8,143.36 137.88,143.36 C138.96,143.36 139.86,142.46 139.86,141.38 Z M162.216,131.012 C162.216,125.144 159.588,118.628 153.036,118.628 C146.549354,118.628 143.9367,124.94505 143.857846,130.740735 L143.856,131.012 C143.856,136.844 146.448,143.432 153.036,143.432 C159.588,143.432 162.216,136.844 162.216,131.012 Z M159.156,131.012 L159.150009,131.525454 C159.041571,136.14852 157.444714,140.768 153.036,140.768 C148.545643,140.768 146.97225,135.975844 146.917489,131.268643 L146.916,131.012 C146.916,126.224 148.464,121.292 153.036,121.292 C157.608,121.292 159.156,126.224 159.156,131.012 Z M184.248,131.012 C184.248,125.144 181.62,118.628 175.068,118.628 C168.581354,118.628 165.9687,124.94505 165.889846,130.740735 L165.888,131.012 C165.888,136.844 168.48,143.432 175.068,143.432 C181.62,143.432 184.248,136.844 184.248,131.012 Z M181.188,131.012 L181.182009,131.525454 C181.073571,136.14852 179.476714,140.768 175.068,140.768 C170.577643,140.768 169.00425,135.975844 168.949489,131.268643 L168.948,131.012 C168.948,126.224 170.496,121.292 175.068,121.292 C179.64,121.292 181.188,126.224 181.188,131.012 Z" id="$206.00" fill="#3F4142" fill-rule="nonzero"></path>
            <rect id="Rectangle-4-Copy" fill="#FFFFFF" x="272" y="0" width="232" height="314" rx="4"></rect>
            <path d="M412,257.996491 C412,256.89386 412.898855,256 414.004923,256 L453.995077,256 C455.102365,256 456,256.887832 456,257.996491 L456,314 L412,314 L412,257.996491 Z" id="Selected-one" fill="#1F88DE" style="mix-blend-mode: multiply;"></path>
            <path d="M366,300.991884 C366,299.891797 366.898855,299 368.004923,299 L407.995077,299 C409.102365,299 410,299.893397 410,300.991884 L410,314 L366,314 L366,300.991884 Z" id="Selected-one-Copy-2" fill="#1F88DE" style="mix-blend-mode: multiply;"></path>
            <path d="M319,199 L319,314 L318,314 L318,199 L319,199 Z M365,199 L365,314 L364,314 L364,199 L365,199 Z M411,199 L411,314 L410,314 L410,199 L411,199 Z M458,199 L458,314 L457,314 L457,199 L458,199 Z" id="Combined-Shape" fill="#F3F4F5" style="mix-blend-mode: multiply;"></path>
            <path d="M380.439142,204.845221 L380.434082,205.041016 L381.883301,205.041016 L381.883301,205.020508 C381.883301,203.995117 382.696777,203.21582 383.776855,203.21582 C384.802246,203.21582 385.595215,203.913086 385.595215,204.788086 C385.595215,205.560547 385.280762,206.080078 384.077637,207.331055 L380.516113,210.960938 L380.516113,212 L387.263184,212 L387.263184,210.708008 L382.580566,210.708008 L382.580566,210.673828 L385.04834,208.192383 L385.456452,207.76716 C386.607617,206.541982 387.105957,205.746484 387.105957,204.712891 C387.105957,203.147461 385.70459,201.951172 383.824707,201.951172 C381.930445,201.951172 380.533248,203.16197 380.439142,204.845221 Z M391.118652,212 L392.615723,212 L392.615723,202.135742 L391.10498,202.135742 L388.507324,203.981445 L388.507324,205.485352 L391.084473,203.65332 L391.118652,203.65332 L391.118652,212 Z M384.539062,226 L384.539062,217.544922 L383.015625,217.544922 L380.285156,224.21875 L380.238281,224.21875 L377.501953,217.544922 L375.984375,217.544922 L375.984375,226 L377.179688,226 L377.179688,219.777344 L377.220703,219.777344 L379.775391,225.935547 L380.748047,225.935547 L383.296875,219.777344 L383.337891,219.777344 L383.337891,226 L384.539062,226 Z M388.693359,226.076172 C390.533203,226.076172 391.699219,224.822266 391.699219,222.818359 C391.699219,220.814453 390.527344,219.554688 388.693359,219.554688 C386.859375,219.554688 385.681641,220.820312 385.681641,222.818359 C385.681641,224.822266 386.853516,226.076172 388.693359,226.076172 Z M388.693359,225.021484 C387.615234,225.021484 386.970703,224.207031 386.970703,222.818359 C386.970703,221.435547 387.615234,220.609375 388.693359,220.609375 C389.771484,220.609375 390.410156,221.429688 390.410156,222.818359 C390.410156,224.207031 389.771484,225.021484 388.693359,225.021484 Z M392.71875,226 L392.71875,219.636719 L393.931641,219.636719 L393.931641,220.708984 L393.955078,220.708984 C394.341797,219.958984 394.980469,219.566406 395.964844,219.566406 C397.371094,219.566406 398.173828,220.457031 398.173828,221.921875 L398.173828,226 L396.902344,226 L396.902344,222.162109 C396.902344,221.195312 396.457031,220.65625 395.525391,220.65625 C394.564453,220.65625 393.990234,221.324219 393.990234,222.326172 L393.990234,226 L392.71875,226 Z" id="21Mon" fill="#9AA8B1" fill-rule="nonzero"></path>
            <path d="M290.758301,212 L292.255371,212 L292.255371,202.135742 L290.744629,202.135742 L288.146973,203.981445 L288.146973,205.485352 L290.724121,203.65332 L290.758301,203.65332 L290.758301,212 Z M297.963379,212.18457 C300.437988,212.18457 301.900879,210.229492 301.900879,206.927734 C301.900879,205.772461 301.695801,204.801758 301.29248,204.015625 C300.656738,202.689453 299.480957,201.944336 298.018066,201.944336 C295.933105,201.944336 294.415527,203.379883 294.415527,205.355469 C294.415527,207.228516 295.816895,208.616211 297.689941,208.616211 C298.961426,208.616211 300.000488,207.973633 300.396973,207.00293 L300.424316,207.00293 C300.424316,209.491211 299.521973,210.913086 297.983887,210.913086 C297.074707,210.913086 296.322754,210.373047 296.090332,209.566406 L294.552246,209.566406 C294.846191,211.131836 296.206543,212.18457 297.963379,212.18457 Z M298.018066,207.365234 C296.821777,207.365234 295.939941,206.490234 295.939941,205.307617 C295.939941,204.15918 296.862793,203.25 298.038574,203.25 C299.214355,203.25 300.130371,204.166016 300.130371,205.334961 C300.130371,206.49707 299.228027,207.365234 298.018066,207.365234 Z M286.884766,223.673828 C286.984375,225.167969 288.226562,226.140625 290.019531,226.140625 C291.964844,226.140625 293.183594,225.173828 293.183594,223.626953 C293.183594,222.466797 292.53492,221.799847 290.945285,221.359455 L289.837891,221.066406 C288.689453,220.767578 288.220703,220.386719 288.220703,219.748047 C288.220703,218.921875 288.982422,218.353516 290.078125,218.353516 C291.179688,218.353516 291.912109,218.910156 292.005859,219.818359 L293.060547,219.818359 C293.013672,218.400391 291.794922,217.404297 290.113281,217.404297 C288.355469,217.404297 287.125,218.388672 287.125,219.794922 C287.125,220.943359 287.816406,221.628906 289.375,222.027344 L290.458984,222.308594 C291.595703,222.601562 292.09375,223.041016 292.09375,223.755859 C292.09375,224.587891 291.261719,225.191406 290.119141,225.191406 C288.912109,225.191406 288.044922,224.587891 287.945312,223.673828 L286.884766,223.673828 Z M296.347656,225.173828 C295.550781,225.173828 295.041016,224.792969 295.041016,224.207031 C295.041016,223.597656 295.533203,223.251953 296.482422,223.193359 L298.134766,223.087891 L298.134766,223.597656 C298.134766,224.505859 297.378906,225.173828 296.347656,225.173828 Z M296.130859,226.058594 C297.015625,226.058594 297.806641,225.607422 298.164062,224.904297 L298.1875,224.904297 L298.1875,226 L299.154297,226 L299.154297,221.664062 C299.154297,220.421875 298.193359,219.625 296.699219,219.625 C295.375,219.625 294.337891,220.439453 294.308594,221.505859 L295.287109,221.505859 C295.410156,220.908203 295.955078,220.533203 296.6875,220.533203 C297.619141,220.533203 298.134766,220.966797 298.134766,221.751953 L298.134766,222.279297 L296.365234,222.384766 C294.830078,222.478516 293.998047,223.117188 293.998047,224.201172 C293.998047,225.320312 294.847656,226.058594 296.130859,226.058594 Z M300.841797,218.259766 L301.861328,218.259766 L301.861328,219.683594 L303.091797,219.683594 L303.091797,220.527344 L301.861328,220.527344 L301.861328,224.318359 C301.861328,224.898438 302.107422,225.162109 302.646484,225.162109 L302.834078,225.155172 C302.938281,225.148984 303.04375,225.139844 303.085938,225.132812 L303.085938,225.994141 C302.962891,226.023438 302.669922,226.046875 302.429688,226.046875 C301.287109,226.046875 300.841797,225.572266 300.841797,224.359375 L300.841797,220.527344 L299.962891,220.527344 L299.962891,219.683594 L300.841797,219.683594 L300.841797,218.259766 Z" id="19Sat" fill="#9AA8B1" fill-rule="nonzero"></path>
            <path d="M333.777032,204.845221 L333.771973,205.041016 L335.221191,205.041016 L335.221191,205.020508 C335.221191,203.995117 336.034668,203.21582 337.114746,203.21582 C338.140137,203.21582 338.933105,203.913086 338.933105,204.788086 C338.933105,205.560547 338.618652,206.080078 337.415527,207.331055 L333.854004,210.960938 L333.854004,212 L340.601074,212 L340.601074,210.708008 L335.918457,210.708008 L335.918457,210.673828 L338.38623,208.192383 L338.794343,207.76716 C339.945508,206.541982 340.443848,205.746484 340.443848,204.712891 C340.443848,203.147461 339.04248,201.951172 337.162598,201.951172 C335.268336,201.951172 333.871138,203.16197 333.777032,204.845221 L333.777032,204.845221 Z M345.557129,212.18457 C347.922363,212.18457 349.310059,210.195312 349.310059,207.050781 C349.310059,203.926758 347.915527,201.951172 345.557129,201.951172 C343.205566,201.951172 341.790527,203.933594 341.790527,207.057617 C341.790527,210.202148 343.191895,212.18457 345.557129,212.18457 Z M345.557129,210.899414 C344.148926,210.899414 343.342285,209.436523 343.342285,207.057617 C343.342285,204.712891 344.162598,203.236328 345.557129,203.236328 C346.95166,203.236328 347.765137,204.706055 347.765137,207.057617 C347.765137,209.443359 346.965332,210.899414 345.557129,210.899414 Z M331.533203,223.644531 C331.615234,225.173828 332.880859,226.140625 334.755859,226.140625 C336.759766,226.140625 338.019531,225.150391 338.019531,223.568359 C338.019531,222.385785 337.360136,221.696416 335.784951,221.279757 L334.632812,220.996094 C333.542969,220.726562 333.097656,220.375 333.097656,219.777344 C333.097656,219.027344 333.794922,218.511719 334.814453,218.511719 C335.833984,218.511719 336.53125,219.021484 336.607422,219.865234 L337.884766,219.865234 C337.84375,218.40625 336.619141,217.404297 334.832031,217.404297 C333.027344,217.404297 331.755859,218.40625 331.755859,219.865234 C331.755859,221.042969 332.476562,221.769531 334.029297,222.144531 L335.125,222.408203 C336.220703,222.677734 336.683594,223.070312 336.683594,223.726562 C336.683594,224.482422 335.916016,225.033203 334.849609,225.033203 C333.736328,225.033203 332.921875,224.482422 332.828125,223.644531 L331.533203,223.644531 Z M344.494141,219.636719 L343.222656,219.636719 L343.222656,223.304688 C343.222656,224.3125 342.642578,224.974609 341.693359,224.974609 C340.773438,224.974609 340.310547,224.453125 340.310547,223.474609 L340.310547,219.636719 L339.039062,219.636719 L339.039062,223.714844 C339.039062,225.173828 339.882812,226.070312 341.271484,226.070312 C342.244141,226.070312 342.888672,225.666016 343.257812,224.910156 L343.28125,224.910156 L343.28125,226 L344.494141,226 L344.494141,219.636719 Z M345.794922,226 L345.794922,219.636719 L347.007812,219.636719 L347.007812,220.708984 L347.03125,220.708984 C347.417969,219.958984 348.056641,219.566406 349.041016,219.566406 C350.447266,219.566406 351.25,220.457031 351.25,221.921875 L351.25,226 L349.978516,226 L349.978516,222.162109 C349.978516,221.195312 349.533203,220.65625 348.601562,220.65625 C347.640625,220.65625 347.066406,221.324219 347.066406,222.326172 L347.066406,226 L345.794922,226 Z" id="20Sun" fill="#9AA8B1" fill-rule="nonzero"></path>
            <path d="M427.081232,204.845221 L427.076172,205.041016 L428.525391,205.041016 L428.525391,205.020508 C428.525391,203.995117 429.338867,203.21582 430.418945,203.21582 C431.444336,203.21582 432.237305,203.913086 432.237305,204.788086 C432.237305,205.560547 431.922852,206.080078 430.719727,207.331055 L427.158203,210.960938 L427.158203,212 L433.905273,212 L433.905273,210.708008 L429.222656,210.708008 L429.222656,210.673828 L431.69043,208.192383 L432.098542,207.76716 C433.249707,206.541982 433.748047,205.746484 433.748047,204.712891 C433.748047,203.147461 432.34668,201.951172 430.466797,201.951172 C428.572535,201.951172 427.175338,203.16197 427.081232,204.845221 L427.081232,204.845221 Z M435.188654,204.845221 L435.183594,205.041016 L436.632812,205.041016 L436.632812,205.020508 C436.632812,203.995117 437.446289,203.21582 438.526367,203.21582 C439.551758,203.21582 440.344727,203.913086 440.344727,204.788086 C440.344727,205.560547 440.030273,206.080078 438.827148,207.331055 L435.265625,210.960938 L435.265625,212 L442.012695,212 L442.012695,210.708008 L437.330078,210.708008 L437.330078,210.673828 L439.797852,208.192383 C441.240234,206.71582 441.855469,205.861328 441.855469,204.712891 C441.855469,203.147461 440.454102,201.951172 438.574219,201.951172 C436.679957,201.951172 435.28276,203.16197 435.188654,204.845221 L435.188654,204.845221 Z M428.532227,226 L428.532227,218.675781 L431.163086,218.675781 L431.163086,217.544922 L424.583008,217.544922 L424.583008,218.675781 L427.219727,218.675781 L427.219727,226 L428.532227,226 Z M437.532227,219.636719 L436.260742,219.636719 L436.260742,223.304688 C436.260742,224.3125 435.680664,224.974609 434.731445,224.974609 C433.811523,224.974609 433.348633,224.453125 433.348633,223.474609 L433.348633,219.636719 L432.077148,219.636719 L432.077148,223.714844 C432.077148,225.173828 432.920898,226.070312 434.30957,226.070312 C435.282227,226.070312 435.926758,225.666016 436.295898,224.910156 L436.319336,224.910156 L436.319336,226 L437.532227,226 L437.532227,219.636719 Z M441.487305,219.554688 C443.233398,219.554688 444.334961,220.767578 444.334961,222.695312 L444.334961,223.140625 L439.829102,223.140625 L439.829102,223.216797 C439.829102,224.318359 440.520508,225.044922 441.563477,225.044922 C442.301758,225.044922 442.881836,224.693359 443.057617,224.136719 L444.270508,224.136719 C444.088867,225.279297 442.969727,226.076172 441.540039,226.076172 C439.694336,226.076172 438.545898,224.833984 438.545898,222.841797 C438.545898,220.849609 439.706055,219.554688 441.487305,219.554688 Z M441.481445,220.591797 C440.567383,220.591797 439.905273,221.259766 439.834961,222.238281 L439.834961,222.238281 L443.063477,222.238281 C443.03418,221.248047 442.407227,220.591797 441.481445,220.591797 Z" id="22Tue" fill="#9AA8B1" fill-rule="nonzero"></path>
            <path d="M474.705354,204.875279 L474.700195,205.082031 L476.354492,205.082031 L476.354492,205.054688 C476.354492,204.077148 477.120117,203.352539 478.145508,203.352539 C479.123047,203.352539 479.854492,204.001953 479.854492,204.81543 C479.854492,205.553711 479.546875,206.05957 478.425781,207.201172 L474.795898,210.810547 L474.795898,212 L481.727539,212 L481.727539,210.557617 L477.147461,210.557617 L477.147461,210.523438 L479.587891,208.110352 C480.879883,206.804688 481.577148,205.916016 481.577148,204.740234 C481.577148,203.140625 480.168945,201.9375 478.200195,201.9375 C476.226731,201.9375 474.801312,203.154671 474.705354,204.875279 L474.705354,204.875279 Z M485.30957,207.604492 L486.526367,207.604492 C487.75,207.604492 488.501953,208.212891 488.501953,209.210938 C488.501953,210.120117 487.702148,210.755859 486.567383,210.755859 C485.391602,210.755859 484.65332,210.154297 484.571289,209.251953 L482.889648,209.251953 C482.978516,211.008789 484.386719,212.198242 486.553711,212.198242 C488.707031,212.198242 490.292969,211.022461 490.292969,209.279297 C490.292969,207.905273 489.335938,207.00293 487.859375,206.893555 L487.859375,206.852539 C489.076172,206.640625 489.896484,205.758789 489.896484,204.535156 C489.896484,202.99707 488.515625,201.9375 486.574219,201.9375 C484.537109,201.9375 483.176758,203.085938 483.081055,204.856445 L484.72168,204.856445 C484.790039,203.933594 485.473633,203.338867 486.492188,203.338867 C487.599609,203.338867 488.201172,203.913086 488.201172,204.774414 C488.201172,205.65625 487.510742,206.27832 486.499023,206.27832 L485.30957,206.27832 L485.30957,207.604492 Z M475.858398,219.291016 L475.916992,219.291016 L477.868164,226 L478.864258,226 L481.166992,217.544922 L480.06543,217.544922 L478.37207,224.447266 L478.325195,224.447266 L476.420898,217.544922 L475.354492,217.544922 L473.450195,224.447266 L473.40332,224.447266 L471.709961,217.544922 L470.608398,217.544922 L472.911133,226 L473.907227,226 L475.858398,219.291016 Z M484.641602,220.521484 C485.637695,220.521484 486.317383,221.236328 486.34082,222.308594 L482.866211,222.308594 C482.936523,221.242188 483.651367,220.521484 484.641602,220.521484 Z M486.317383,224.195312 C486.135742,224.787109 485.520508,225.162109 484.729492,225.162109 C483.658064,225.162109 482.9374,224.455264 482.871195,223.350328 L482.866211,223.123047 L487.401367,223.123047 L487.401367,222.724609 C487.401367,220.814453 486.34668,219.625 484.65918,219.625 C482.936523,219.625 481.811523,220.908203 481.811523,222.865234 C481.811523,224.822266 482.930664,226.058594 484.706055,226.058594 C486.053711,226.058594 487.149414,225.279297 487.325195,224.195312 L486.317383,224.195312 Z M490.870117,226.058594 C491.78418,226.058594 492.504883,225.660156 492.915039,224.933594 L492.932617,224.933594 L492.932617,226 L493.905273,226 L493.905273,217.175781 L492.885742,217.175781 L492.885742,220.708984 L492.862305,220.708984 C492.475586,220.017578 491.749023,219.625 490.84668,219.625 C489.276367,219.625 488.163086,220.914062 488.163086,222.841797 C488.163086,224.769531 489.282227,226.058594 490.870117,226.058594 Z M491.051758,220.533203 C492.147461,220.533203 492.891602,221.470703 492.891602,222.841797 C492.891602,224.21875 492.147461,225.150391 491.051758,225.150391 C489.944336,225.150391 489.206055,224.242188 489.206055,222.841797 C489.206055,221.447266 489.944336,220.533203 491.051758,220.533203 Z" id="23Wed" fill="#1F88DE" fill-rule="nonzero"></path>
            <path d="M343.628174,54.840332 L343.628174,64 L346.770264,64 C349.493408,64 351.093018,62.3051758 351.093018,59.4169922 C351.093018,56.5351562 349.487061,54.840332 346.770264,54.840332 L343.628174,54.840332 Z M344.770752,55.8686523 L346.694092,55.8686523 C348.776123,55.8686523 349.925049,57.1381836 349.925049,59.4296875 C349.925049,61.7021484 348.769775,62.9716797 346.694092,62.9716797 L344.770752,62.9716797 L344.770752,55.8686523 Z M357.948486,57.1572266 L356.843994,57.1572266 L356.843994,61.1308594 C356.843994,62.3051758 356.164795,63.0795898 355.04126,63.0795898 C353.968506,63.0795898 353.44165,62.4765625 353.44165,61.3530273 L353.44165,57.1572266 L352.337158,57.1572266 L352.337158,61.543457 C352.337158,63.0986328 353.206787,64.0634766 354.704834,64.0634766 C355.752197,64.0634766 356.456787,63.6572266 356.88208,62.8701172 L356.907471,62.8701172 L356.907471,64 L357.948486,64 L357.948486,57.1572266 Z M362.176025,58.0649414 C363.255127,58.0649414 363.991455,58.8393555 364.016846,60.0009766 L360.252686,60.0009766 C360.328857,58.8457031 361.103271,58.0649414 362.176025,58.0649414 Z M363.991455,62.0449219 C363.794678,62.6860352 363.128174,63.0922852 362.27124,63.0922852 C361.105479,63.0922852 360.323026,62.319863 360.25719,61.1138845 L360.252686,60.8833008 L365.165771,60.8833008 L365.165771,60.4516602 C365.165771,58.3823242 364.023193,57.09375 362.195068,57.09375 C360.328857,57.09375 359.110107,58.4838867 359.110107,60.6040039 C359.110107,62.7241211 360.32251,64.0634766 362.24585,64.0634766 C363.705811,64.0634766 364.892822,63.2192383 365.083252,62.0449219 L363.991455,62.0449219 Z M371.767334,64 L372.871826,64 L372.871826,54.840332 L371.754639,54.840332 L369.317139,56.5922852 L369.317139,57.7983398 L371.741943,56.0527344 L371.767334,56.0527344 L371.767334,64 Z M378.400635,64.1523438 C380.533447,64.1523438 381.764893,62.3051758 381.764893,59.4106445 C381.764893,56.5351562 380.5271,54.6879883 378.400635,54.6879883 C376.27417,54.6879883 375.023682,56.5478516 375.023682,59.4169922 C375.023682,62.3115234 376.261475,64.1523438 378.400635,64.1523438 Z M378.400635,63.1557617 C376.966064,63.1557617 376.172607,61.6958008 376.172607,59.4106445 C376.172607,57.1762695 376.985107,55.690918 378.400635,55.690918 C379.816162,55.690918 380.615967,57.1635742 380.615967,59.4169922 C380.615967,61.7021484 379.828857,63.1557617 378.400635,63.1557617 Z M383.262939,66.0883789 L386.081299,54.8339844 L385.135498,54.8339844 L382.336182,66.0883789 L383.262939,66.0883789 Z M389.159912,64 L390.264404,64 L390.264404,54.840332 L389.147217,54.840332 L386.709717,56.5922852 L386.709717,57.7983398 L389.134521,56.0527344 L389.159912,56.0527344 L389.159912,64 Z M395.793213,64.1523438 C397.926025,64.1523438 399.157471,62.3051758 399.157471,59.4106445 C399.157471,56.5351562 397.919678,54.6879883 395.793213,54.6879883 C393.666748,54.6879883 392.41626,56.5478516 392.41626,59.4169922 C392.41626,62.3115234 393.654053,64.1523438 395.793213,64.1523438 Z M395.793213,63.1557617 C394.358643,63.1557617 393.565186,61.6958008 393.565186,59.4106445 C393.565186,57.1762695 394.377686,55.690918 395.793213,55.690918 C397.20874,55.690918 398.008545,57.1635742 398.008545,59.4169922 C398.008545,61.7021484 397.221436,63.1557617 395.793213,63.1557617 Z M400.655518,66.0883789 L403.473877,54.8339844 L402.528076,54.8339844 L399.72876,66.0883789 L400.655518,66.0883789 Z M404.16434,57.3111607 L404.159424,57.4873047 L405.263916,57.4873047 C405.263916,56.4589844 406.076416,55.6845703 407.14917,55.6845703 C408.158447,55.6845703 408.9646,56.3891602 408.9646,57.2714844 C408.9646,58.0332031 408.672607,58.5219727 407.441162,59.8168945 L404.216553,63.2128906 L404.216553,64 L410.259521,64 L410.259521,62.984375 L405.797119,62.984375 L405.797119,62.9589844 L408.114014,60.565918 C409.643799,58.9853516 410.107178,58.2236328 410.107178,57.2016602 C410.107178,55.7988281 408.818604,54.6879883 407.180908,54.6879883 C405.516009,54.6879883 404.252469,55.7976298 404.16434,57.3111607 L404.16434,57.3111607 Z M414.779053,64.1523438 C416.911865,64.1523438 418.143311,62.3051758 418.143311,59.4106445 C418.143311,56.5351562 416.905518,54.6879883 414.779053,54.6879883 C412.652588,54.6879883 411.4021,56.5478516 411.4021,59.4169922 C411.4021,62.3115234 412.639893,64.1523438 414.779053,64.1523438 Z M414.779053,63.1557617 C413.344482,63.1557617 412.551025,61.6958008 412.551025,59.4106445 C412.551025,57.1762695 413.363525,55.690918 414.779053,55.690918 C416.19458,55.690918 416.994385,57.1635742 416.994385,59.4169922 C416.994385,61.7021484 416.207275,63.1557617 414.779053,63.1557617 Z M421.793213,64 L422.897705,64 L422.897705,54.840332 L421.780518,54.840332 L419.343018,56.5922852 L419.343018,57.7983398 L421.767822,56.0527344 L421.793213,56.0527344 L421.793213,64 Z M428.534424,64.1586914 C430.41333,64.1586914 431.778076,62.8383789 431.778076,61.0292969 C431.778076,59.2900391 430.483154,58.0014648 428.737549,58.0014648 C427.601318,58.0014648 426.592041,58.5917969 426.179443,59.4868164 L426.1604,59.4868164 C426.198486,57.0493164 427.068115,55.690918 428.5979,55.690918 C429.505615,55.690918 430.241943,56.2241211 430.489502,57.0556641 L431.651123,57.0556641 C431.359131,55.6147461 430.165771,54.6816406 428.610596,54.6816406 C426.369873,54.6816406 425.055908,56.4907227 425.055908,59.5756836 C425.055908,60.565918 425.201904,61.3911133 425.506592,62.0957031 C426.071533,63.4160156 427.16333,64.1586914 428.534424,64.1586914 Z M428.521729,63.1430664 C427.347412,63.1430664 426.43335,62.2099609 426.43335,61.0356445 C426.43335,59.8676758 427.328369,59.0043945 428.540771,59.0043945 C429.753174,59.0043945 430.616455,59.8676758 430.616455,61.0673828 C430.616455,62.2226562 429.689697,63.1430664 428.521729,63.1430664 Z" id="Due10/10/2016" fill="#343536" fill-rule="nonzero"></path>
            <path d="M360.232178,40.1523438 C362.396729,40.1523438 363.894775,38.965332 364.18042,37.0039062 L362.574463,37.0039062 C362.320557,38.1083984 361.450928,38.762207 360.238525,38.762207 C358.651611,38.762207 357.648682,37.4736328 357.648682,35.4169922 C357.648682,33.3730469 358.657959,32.078125 360.232178,32.078125 C361.419189,32.078125 362.352295,32.8334961 362.568115,33.9824219 L364.18042,33.9824219 C363.977295,32.0146484 362.358643,30.6879883 360.232178,30.6879883 C357.629639,30.6879883 355.9729,32.4970703 355.9729,35.4169922 C355.9729,38.355957 357.616943,40.1523438 360.232178,40.1523438 Z M371.391357,33.0620117 L369.810791,33.0620117 L369.810791,37.0419922 C369.810791,38.0703125 369.220459,38.7495117 368.255615,38.7495117 C367.32251,38.7495117 366.83374,38.2036133 366.83374,37.1943359 L366.83374,33.0620117 L365.253174,33.0620117 L365.253174,37.5117188 C365.253174,39.1113281 366.198975,40.0888672 367.709717,40.0888672 C368.763428,40.0888672 369.455322,39.6318359 369.836182,38.7875977 L369.874268,38.7875977 L369.874268,40 L371.391357,40 L371.391357,33.0620117 Z M372.737061,40 L374.317627,40 L374.317627,35.9755859 C374.317627,34.9980469 374.876221,34.3950195 375.802979,34.3950195 C376.075928,34.3950195 376.323486,34.4331055 376.456787,34.4838867 L376.456787,33.0493164 C376.336182,33.0112305 376.158447,32.9858398 375.948975,32.9858398 C375.130127,32.9858398 374.508057,33.4555664 374.285889,34.2680664 L374.25415,34.2680664 L374.25415,33.0620117 L372.737061,33.0620117 L372.737061,40 Z M377.301025,40 L378.881592,40 L378.881592,35.9755859 C378.881592,34.9980469 379.440186,34.3950195 380.366943,34.3950195 C380.639893,34.3950195 380.887451,34.4331055 381.020752,34.4838867 L381.020752,33.0493164 C380.900146,33.0112305 380.722412,32.9858398 380.512939,32.9858398 C379.694092,32.9858398 379.072021,33.4555664 378.849854,34.2680664 L378.818115,34.2680664 L378.818115,33.0620117 L377.301025,33.0620117 L377.301025,40 Z M384.835693,34.1982422 C385.775146,34.1982422 386.422607,34.8583984 386.454346,35.8613281 L383.16626,35.8613281 C383.236084,34.8710938 383.908936,34.1982422 384.835693,34.1982422 Z M386.460693,37.9370117 C386.276611,38.5083008 385.686279,38.8701172 384.924561,38.8701172 C383.864502,38.8701172 383.153564,38.1274414 383.153564,37.0102539 L383.153564,36.9150391 L388.009521,36.9150391 L388.009521,36.3945312 C388.009521,34.293457 386.778076,32.9667969 384.835693,32.9667969 C382.848877,32.9667969 381.572998,34.3759766 381.572998,36.5595703 C381.572998,38.7431641 382.842529,40.1015625 384.892822,40.1015625 C386.511475,40.1015625 387.74292,39.2192383 387.946045,37.9370117 L386.460693,37.9370117 Z M389.06958,40 L390.650146,40 L390.650146,36.0200195 C390.650146,35.0043945 391.234131,34.3188477 392.205322,34.3188477 C393.157471,34.3188477 393.627197,34.8774414 393.627197,35.8676758 L393.627197,40 L395.207764,40 L395.207764,35.5566406 C395.207764,33.9506836 394.331787,32.9794922 392.795654,32.9794922 C391.729248,32.9794922 391.031006,33.4238281 390.618408,34.2680664 L390.58667,34.2680664 L390.58667,33.0620117 L389.06958,33.0620117 L389.06958,40 Z M396.966064,31.5131836 L396.966064,33.0620117 L396.020264,33.0620117 L396.020264,34.2871094 L396.966064,34.2871094 L396.966064,38.1591797 C396.966064,39.4985352 397.550049,40.0317383 399.022705,40.0317383 C399.359131,40.0317383 399.682861,40.0063477 399.854248,39.9682617 L399.854248,38.7558594 C399.752686,38.7685547 399.536865,38.7875977 399.384521,38.7875977 C398.813232,38.7875977 398.546631,38.5146484 398.546631,37.9433594 L398.546631,34.2871094 L399.860596,34.2871094 L399.860596,33.0620117 L398.546631,33.0620117 L398.546631,31.5131836 L396.966064,31.5131836 Z M407.934814,40 C409.889893,40 411.083252,39.0097656 411.083252,37.3974609 C411.083252,36.1850586 410.207275,35.2900391 408.963135,35.1694336 L408.963135,35.1186523 C409.902588,34.9663086 410.632568,34.109375 410.632568,33.1254883 C410.632568,31.7353516 409.559814,30.840332 407.896729,30.840332 L404.018311,30.840332 L404.018311,40 L407.934814,40 Z M405.656006,32.1162109 L407.490479,32.1162109 C408.46167,32.1162109 409.013916,32.5668945 409.013916,33.3666992 C409.013916,34.2172852 408.372803,34.699707 407.230225,34.699707 L405.656006,34.699707 L405.656006,32.1162109 Z M405.656006,38.7241211 L405.656006,35.8613281 L407.496826,35.8613281 C408.747314,35.8613281 409.407471,36.3500977 409.407471,37.2832031 C409.407471,38.2226562 408.766357,38.7241211 407.560303,38.7241211 L405.656006,38.7241211 Z M412.156006,40 L413.736572,40 L413.736572,33.0620117 L412.156006,33.0620117 L412.156006,40 Z M412.943115,32.1796875 C413.438232,32.1796875 413.831787,31.7988281 413.831787,31.3100586 C413.831787,30.8149414 413.438232,30.4404297 412.943115,30.4404297 C412.454346,30.4404297 412.054443,30.8149414 412.054443,31.3100586 C412.054443,31.7988281 412.454346,32.1796875 412.943115,32.1796875 Z M415.17749,40 L416.758057,40 L416.758057,30.4150391 L415.17749,30.4150391 L415.17749,40 Z M418.21167,40 L418.21167,30.4150391 L419.792236,30.4150391 L419.792236,40 L418.21167,40 Z" id="CurrentBill" fill="#343536" fill-rule="nonzero"></path>
            <path d="M336.003906,147.636719 L336.003906,145.140625 C340.908203,144.806641 344.019531,142.099609 344.019531,138.056641 C344.019531,134.550391 342.01967,132.539835 337.346232,131.301962 L336.003906,130.955078 L336.003906,121.392578 C338.992188,121.65625 341.189453,123.589844 341.277344,126.015625 L343.5625,126.015625 C343.439453,122.359375 340.363281,119.617188 336.003906,119.300781 L336.003906,116.892578 L334.175781,116.892578 L334.175781,119.318359 C329.658203,119.652344 326.6875,122.324219 326.6875,126.103516 C326.6875,129.325586 328.676014,131.394652 332.881138,132.538808 L334.175781,132.888672 L334.175781,143.066406 C330.853516,142.767578 328.550781,140.816406 328.357422,138.126953 L326.072266,138.126953 C326.125,142.046875 329.429688,144.859375 334.175781,145.158203 L334.175781,147.636719 L336.003906,147.636719 Z M341.699219,138.232422 C341.699219,141.027344 339.449219,142.943359 336.003906,143.101562 L336.003906,133.257812 C340.064453,134.171875 341.699219,135.613281 341.699219,138.232422 Z M328.990234,125.980469 C328.990234,123.449219 331.1875,121.533203 334.175781,121.392578 L334.175781,130.550781 C330.589844,129.759766 328.990234,128.335938 328.990234,125.980469 Z M347.822202,126.488136 L347.816406,126.753906 L350.136719,126.753906 L350.136719,126.736328 C350.171875,123.642578 352.615234,121.339844 355.867188,121.339844 C358.978516,121.339844 361.439453,123.519531 361.439453,126.296875 C361.439453,128.511719 360.525391,130.023438 356.904297,133.837891 L347.939453,143.3125 L347.939453,145 L364.480469,145 L364.480469,142.855469 L351.296875,142.855469 L351.296875,142.785156 L358.932838,134.806138 C362.695429,130.829322 363.830078,128.804415 363.830078,126.15625 C363.830078,122.271484 360.367188,119.230469 355.9375,119.230469 C351.386118,119.230469 347.984517,122.290915 347.822202,126.488136 L347.822202,126.488136 Z M376.785156,145.404297 C382.550781,145.404297 385.960938,140.306641 385.960938,132.291016 C385.960938,124.328125 382.533203,119.230469 376.785156,119.230469 C371.054688,119.230469 367.591797,124.345703 367.591797,132.308594 C367.591797,140.324219 371.019531,145.404297 376.785156,145.404297 Z M376.785156,143.294922 C372.496094,143.294922 370.017578,139.023438 370.017578,132.291016 C370.017578,125.681641 372.548828,121.357422 376.785156,121.357422 C381.039062,121.357422 383.552734,125.646484 383.552734,132.308594 C383.552734,139.023438 381.074219,143.294922 376.785156,143.294922 Z M398.582031,145.404297 C403.662109,145.404297 407.388672,141.748047 407.388672,136.773438 C407.388672,131.974609 403.785156,128.388672 398.96875,128.388672 C395.541016,128.388672 392.535156,130.357422 391.498047,133.205078 L391.445312,133.205078 C391.445312,125.681641 394.099609,121.357422 398.740234,121.357422 C401.570312,121.357422 403.873047,123.080078 404.505859,125.664062 L406.931641,125.664062 C406.210938,121.779297 402.976562,119.230469 398.757812,119.230469 C392.746094,119.230469 389.125,124.345703 389.125,132.853516 C389.125,136.035156 389.6875,138.619141 390.830078,140.605469 C392.394531,143.681641 395.171875,145.404297 398.582031,145.404297 Z M398.564453,143.259766 C394.925781,143.259766 392.130859,140.359375 392.130859,136.667969 C392.130859,133.222656 394.960938,130.515625 398.582031,130.515625 C402.255859,130.515625 404.945312,133.205078 404.945312,136.84375 C404.945312,140.429688 402.132812,143.259766 398.564453,143.259766 Z M413.207031,145.175781 C414.15625,145.175781 414.876953,144.4375 414.876953,143.505859 C414.876953,142.556641 414.15625,141.835938 413.207031,141.835938 C412.275391,141.835938 411.537109,142.556641 411.537109,143.505859 C411.537109,144.4375 412.275391,145.175781 413.207031,145.175781 Z M428.412109,145.404297 C434.177734,145.404297 437.587891,140.306641 437.587891,132.291016 C437.587891,124.328125 434.160156,119.230469 428.412109,119.230469 C422.681641,119.230469 419.21875,124.345703 419.21875,132.308594 C419.21875,140.324219 422.646484,145.404297 428.412109,145.404297 Z M428.412109,143.294922 C424.123047,143.294922 421.644531,139.023438 421.644531,132.291016 C421.644531,125.681641 424.175781,121.357422 428.412109,121.357422 C432.666016,121.357422 435.179688,125.646484 435.179688,132.308594 C435.179688,139.023438 432.701172,143.294922 428.412109,143.294922 Z M449.892578,145.404297 C455.658203,145.404297 459.068359,140.306641 459.068359,132.291016 C459.068359,124.328125 455.640625,119.230469 449.892578,119.230469 C444.162109,119.230469 440.699219,124.345703 440.699219,132.308594 C440.699219,140.324219 444.126953,145.404297 449.892578,145.404297 Z M449.892578,143.294922 C445.603516,143.294922 443.125,139.023438 443.125,132.291016 C443.125,125.681641 445.65625,121.357422 449.892578,121.357422 C454.146484,121.357422 456.660156,125.646484 456.660156,132.308594 C456.660156,139.023438 454.181641,143.294922 449.892578,143.294922 Z" id="$206.00" fill="#3F4142" fill-rule="nonzero"></path>
        </g>
    </g>
</svg>