<?xml version="1.0" encoding="UTF-8"?>
<svg width="700px" height="400px" viewBox="0 0 700 400" version="1.1" xmlns="http://www.w3.org/2000/svg" xmlns:xlink="http://www.w3.org/1999/xlink">
    <!-- Generator: Sketch Beta 58 (84659) - https://sketch.com -->
    <title>Artboard</title>
    <desc>Created with Sketch Beta.</desc>
    <g id="Artboard" stroke="none" stroke-width="1" fill="none" fill-rule="evenodd">
        <g id="Resource-Usage-Copy" transform="translate(98.000000, 43.000000)">
            <rect id="Rectangle-4-Copy" fill="#FFFFFF" x="0" y="0" width="232" height="314" rx="4"></rect>
            <path d="M141,257.996491 C141,256.89386 141.898855,256 143.004923,256 L182.995077,256 C184.102365,256 185,256.887832 185,257.996491 L185,314 L141,314 L141,257.996491 Z" id="Selected-one" fill="#1F88DE" style="mix-blend-mode: multiply;"></path>
            <path d="M94,300.991884 C94,299.891797 94.8988551,299 96.0049233,299 L135.995077,299 C137.102365,299 138,299.893397 138,300.991884 L138,314 L94,314 L94,300.991884 Z" id="Selected-one-Copy" fill="#1F88DE"></path>
            <path d="M46,199 L46,314 L45,314 L45,199 L46,199 Z M93,199 L93,314 L92,314 L92,199 L93,199 Z M140,199 L140,314 L139,314 L139,199 L140,199 Z M187,199 L187,314 L186,314 L186,199 L187,199 Z" id="Combined-Shape" fill="#F3F4F5" style="mix-blend-mode: multiply;"></path>
            <path d="M116.567,207.848 C116.567,207.526 116.301,207.246 115.965,207.246 L112.115,207.246 L112.648643,206.827954 C114.906,205.037071 116.427,203.504 116.427,201.814 C116.427,199.952 114.845,199 113.179,199 C112.031,199 110.827,199.42 110.141,200.176 C110.043,200.288 110.001,200.428 110.001,200.554 C110.001,200.904 110.309,201.17 110.631,201.17 C110.743,201.17 110.855,201.14312 110.952664,201.075024 L111.023,201.016 C111.583,200.526 112.311,200.232 113.193,200.232 C114.103,200.232 115.027,200.722 115.027,201.814 C115.027,203.242 113.389,204.726 110.057,207.26 C109.889,207.4 109.791,207.596 109.791,207.806 C109.791,208.198 110.099,208.478 110.435,208.478 L115.965,208.478 C116.301,208.478 116.567,208.212 116.567,207.848 Z M121.425,207.876 L121.425,199.84 C121.425,199.406 121.047,199.07 120.627,199.07 C120.403,199.07 120.207,199.14 120.067,199.294 L118.037,201.352 C117.925,201.478 117.869,201.618 117.869,201.772 C117.869,202.108 118.163,202.36 118.457,202.36 C118.611,202.36 118.737,202.304 118.849,202.192 L120.039,200.96 L120.039,207.876 C120.039,208.254 120.347,208.562 120.725,208.562 C121.117,208.562 121.425,208.254 121.425,207.876 Z M113.064,219.962 L113.064,213.278 C113.064,212.75 112.572,212.402 112.032,212.426 C111.648,212.426 111.288,212.654 111.144,213.014 L109.02,218.174 L106.908,213.014 C106.74,212.594 106.308,212.402 105.864,212.426 C105.384,212.426 105,212.822 105,213.278 L105,219.962 C105,220.286 105.264,220.55 105.588,220.55 C105.924,220.55 106.188,220.286 106.188,219.962 L106.188,214.154 L108.72,220.358 C108.768,220.466 108.888,220.55 109.008,220.55 C109.164,220.55 109.272,220.466 109.32,220.358 L111.864,214.154 L111.864,219.962 C111.864,220.286 112.128,220.55 112.464,220.55 C112.8,220.55 113.064,220.286 113.064,219.962 Z M120.312,217.574 C120.312,215.906 119.196,214.538 117.384,214.538 C115.584,214.538 114.468,215.906 114.468,217.574 C114.468,219.242 115.584,220.622 117.384,220.622 C119.196,220.622 120.312,219.242 120.312,217.574 Z M119.196,217.574 C119.196,218.69 118.548,219.674 117.384,219.674 C116.232,219.674 115.572,218.69 115.572,217.574 C115.572,216.47 116.232,215.486 117.384,215.486 C118.548,215.486 119.196,216.47 119.196,217.574 Z M126.672,220.022 C126.672,220.31 126.432,220.55 126.132,220.55 C125.844,220.55 125.604,220.31 125.604,220.022 L125.604,216.758 C125.604,215.798 125.112,215.486 124.368,215.486 C123.684,215.486 123.072,215.894 122.76,216.338 L122.76,220.022 C122.76,220.31 122.52,220.55 122.22,220.55 C121.932,220.55 121.692,220.31 121.692,220.022 L121.692,215.126 C121.692,214.85 121.932,214.61 122.244,214.61 C122.52,214.61 122.76,214.85 122.76,215.126 L122.76,215.498 C123.156,215.03 123.924,214.538 124.812,214.538 C126.036,214.538 126.672,215.174 126.672,216.398 L126.672,220.022 Z" id="21Mon" fill="#9AA8B1" fill-rule="nonzero"></path>
            <path d="M19.176,207.89 L19.176,199.854 C19.176,199.42 18.798,199.084 18.378,199.084 C18.154,199.084 17.958,199.154 17.818,199.308 L15.788,201.366 C15.676,201.492 15.62,201.632 15.62,201.786 C15.62,202.122 15.914,202.374 16.208,202.374 C16.362,202.374 16.488,202.318 16.6,202.206 L17.79,200.974 L17.79,207.89 C17.79,208.268 18.098,208.576 18.476,208.576 C18.868,208.576 19.176,208.268 19.176,207.89 Z M27.898,203.816 C27.898,201.254 26.848,199 24.188,199 C22.116,199 20.828,200.414 20.828,202.094 C20.828,204.082 22.228,205.09 23.908,205.09 C25.07,205.09 26.078,204.348 26.484,203.704 C26.498,203.816 26.498,203.914 26.498,204.026 C26.498,205.762 25.644,207.414 23.95,207.414 C23.278,207.414 22.802,207.218 22.41,206.896 C22.312,206.826 22.186,206.784 22.046,206.784 C21.724,206.784 21.416,207.05 21.416,207.4 C21.416,207.54 21.472,207.666 21.556,207.764 C22.116,208.366 22.956,208.646 23.95,208.646 C26.61,208.646 27.898,206.434 27.898,203.816 Z M26.47,202.64 C25.966,203.382 25.14,203.9 24.272,203.9 C23.152,203.9 22.228,203.312 22.228,202.038 C22.228,201.212 22.9,200.232 24.244,200.232 C25.784,200.232 26.372,201.548 26.47,202.64 Z M19.916,218.284 C19.916,215.296 15.176,216.328 15.176,214.528 C15.176,213.772 15.86,213.256 16.82,213.256 C17.552,213.256 18.284,213.472 18.872,213.952 C18.956,214.024 19.064,214.06 19.16,214.06 C19.424,214.06 19.628,213.82 19.628,213.58 C19.628,213.448 19.568,213.316 19.46,213.22 C18.812,212.68 17.924,212.368 16.892,212.368 C15.32,212.368 14.144,213.268 14.144,214.588 C14.144,217.444 18.884,216.304 18.884,218.368 C18.884,218.98 18.428,219.748 17,219.748 C16.076,219.748 15.308,219.364 14.756,218.872 C14.672,218.8 14.564,218.776 14.468,218.776 C14.18,218.776 14,219.04 14,219.28 C14,219.412 14.048,219.544 14.156,219.64 C14.84,220.24 15.776,220.636 16.964,220.636 C19.124,220.636 19.916,219.448 19.916,218.284 Z M25.892,220.12 L25.892,216.508 C25.892,215.104 24.872,214.552 23.648,214.552 C22.82,214.552 22.1,214.804 21.488,215.356 C21.404,215.428 21.368,215.524 21.368,215.62 C21.368,215.836 21.572,215.98 21.764,215.98 C21.848,215.98 21.944,215.944 22.016,215.884 C22.46,215.512 22.952,215.332 23.528,215.332 C24.368,215.332 24.992,215.776 24.992,216.556 L24.992,217.6 C24.524,217.06 23.864,216.808 23.072,216.808 C22.088,216.808 21.044,217.42 21.044,218.716 C21.044,219.976 22.088,220.636 23.072,220.636 C23.852,220.636 24.512,220.36 24.992,219.832 L24.992,220.096 C24.992,220.348 25.184,220.564 25.436,220.564 C25.688,220.564 25.892,220.36 25.892,220.12 Z M24.992,219.268 C24.644,219.748 24.032,219.988 23.396,219.988 C22.556,219.988 21.968,219.46 21.968,218.728 C21.968,217.984 22.556,217.456 23.396,217.456 C24.032,217.456 24.644,217.696 24.992,218.176 L24.992,219.268 Z M30.224,220.12 C30.224,220.504 29.672,220.636 29.156,220.636 C28.304,220.636 27.872,220.144 27.872,219.28 L27.872,215.488 L27.224,215.488 C27.008,215.488 26.84,215.32 26.84,215.08 C26.84,214.864 27.008,214.696 27.224,214.696 L27.872,214.696 L27.872,213.472 C27.872,213.244 28.076,213.04 28.34,213.04 C28.568,213.04 28.772,213.244 28.772,213.472 L28.772,214.696 L29.636,214.696 C29.852,214.696 30.02,214.864 30.02,215.104 C30.02,215.32 29.852,215.488 29.636,215.488 L28.772,215.488 L28.772,219.088 C28.772,219.52 28.964,219.832 29.36,219.832 C29.516,219.832 29.696,219.748 29.84,219.748 C30.044,219.748 30.224,219.916 30.224,220.12 Z" id="19Sat" fill="#9AA8B1" fill-rule="nonzero"></path>
            <path d="M67.665,207.848 C67.665,207.526 67.399,207.246 67.063,207.246 L63.213,207.246 L63.7466429,206.827954 C66.004,205.037071 67.525,203.504 67.525,201.814 C67.525,199.952 65.943,199 64.277,199 C63.129,199 61.925,199.42 61.239,200.176 C61.141,200.288 61.099,200.428 61.099,200.554 C61.099,200.904 61.407,201.17 61.729,201.17 C61.841,201.17 61.953,201.14312 62.050664,201.075024 L62.121,201.016 C62.681,200.526 63.409,200.232 64.291,200.232 C65.201,200.232 66.125,200.722 66.125,201.814 C66.125,203.242 64.487,204.726 61.155,207.26 C60.987,207.4 60.889,207.596 60.889,207.806 C60.889,208.198 61.197,208.478 61.533,208.478 L67.063,208.478 C67.399,208.478 67.665,208.212 67.665,207.848 Z M76.499,203.816 C76.499,201.506 75.421,199 72.845,199 C70.255,199 69.191,201.506 69.191,203.816 C69.191,206.126 70.255,208.646 72.845,208.646 C75.421,208.646 76.499,206.126 76.499,203.816 Z M75.085,203.816 C75.085,205.636 74.497,207.414 72.845,207.414 C71.179,207.414 70.605,205.636 70.605,203.816 C70.605,201.996 71.179,200.232 72.845,200.232 C74.497,200.232 75.085,201.996 75.085,203.816 Z M65.036,218.21 C65.036,215.222 60.332,216.206 60.332,214.55 C60.332,213.866 60.944,213.398 61.844,213.398 C62.54,213.398 63.236,213.602 63.824,214.034 C63.92,214.106 64.04,214.142 64.148,214.142 C64.448,214.142 64.712,213.89 64.712,213.59 C64.712,213.458 64.664,213.314 64.556,213.218 C63.956,212.666 62.936,212.354 61.94,212.354 C60.284,212.354 59.108,213.314 59.108,214.634 C59.108,217.526 63.812,216.434 63.812,218.33 C63.812,218.894 63.356,219.578 62.06,219.578 C61.184,219.578 60.44,219.23 59.888,218.762 C59.792,218.69 59.66,218.654 59.552,218.654 C59.228,218.654 59,218.942 59,219.242 C59,219.374 59.048,219.506 59.144,219.614 C59.768,220.226 60.836,220.622 62.012,220.622 C64.172,220.622 65.036,219.458 65.036,218.21 Z M71.384,220.022 L71.384,215.126 C71.384,214.85 71.144,214.61 70.868,214.61 C70.556,214.61 70.316,214.85 70.316,215.126 L70.316,218.846 C69.992,219.29 69.38,219.674 68.708,219.674 C67.964,219.674 67.472,219.374 67.472,218.414 L67.472,215.126 C67.472,214.85 67.232,214.61 66.956,214.61 C66.644,214.61 66.404,214.85 66.404,215.126 L66.404,218.786 C66.404,220.01 67.028,220.622 68.252,220.622 C69.14,220.622 69.884,220.178 70.316,219.686 L70.316,220.022 C70.316,220.31 70.556,220.55 70.844,220.55 C71.144,220.55 71.384,220.31 71.384,220.022 Z M78.092,220.022 C78.092,220.31 77.852,220.55 77.552,220.55 C77.264,220.55 77.024,220.31 77.024,220.022 L77.024,216.758 C77.024,215.798 76.532,215.486 75.788,215.486 C75.104,215.486 74.492,215.894 74.18,216.338 L74.18,220.022 C74.18,220.31 73.94,220.55 73.64,220.55 C73.352,220.55 73.112,220.31 73.112,220.022 L73.112,215.126 C73.112,214.85 73.352,214.61 73.664,214.61 C73.94,214.61 74.18,214.85 74.18,215.126 L74.18,215.498 C74.576,215.03 75.344,214.538 76.232,214.538 C77.456,214.538 78.092,215.174 78.092,216.398 L78.092,220.022 Z" id="20Sun" fill="#9AA8B1" fill-rule="nonzero"></path>
            <path d="M160.982,207.848 C160.982,207.526 160.716,207.246 160.38,207.246 L156.53,207.246 L157.063643,206.827954 C159.321,205.037071 160.842,203.504 160.842,201.814 C160.842,199.952 159.26,199 157.594,199 C156.446,199 155.242,199.42 154.556,200.176 C154.458,200.288 154.416,200.428 154.416,200.554 C154.416,200.904 154.724,201.17 155.046,201.17 C155.158,201.17 155.27,201.14312 155.367664,201.075024 L155.438,201.016 C155.998,200.526 156.726,200.232 157.608,200.232 C158.518,200.232 159.442,200.722 159.442,201.814 C159.442,203.242 157.804,204.726 154.472,207.26 C154.304,207.4 154.206,207.596 154.206,207.806 C154.206,208.198 154.514,208.478 154.85,208.478 L160.38,208.478 C160.716,208.478 160.982,208.212 160.982,207.848 Z M169.256,207.848 C169.256,207.526 168.99,207.246 168.654,207.246 L164.804,207.246 L165.337643,206.827954 C167.595,205.037071 169.116,203.504 169.116,201.814 C169.116,199.952 167.534,199 165.868,199 C164.72,199 163.516,199.42 162.83,200.176 C162.732,200.288 162.69,200.428 162.69,200.554 C162.69,200.904 162.998,201.17 163.32,201.17 C163.432,201.17 163.544,201.14312 163.641664,201.075024 L163.712,201.016 C164.272,200.526 165,200.232 165.882,200.232 C166.792,200.232 167.716,200.722 167.716,201.814 C167.716,203.242 166.078,204.726 162.746,207.26 C162.578,207.4 162.48,207.596 162.48,207.806 C162.48,208.198 162.788,208.478 163.124,208.478 L168.654,208.478 C168.99,208.478 169.256,208.212 169.256,207.848 Z M158.3,213.014 C158.3,212.702 158.072,212.474 157.784,212.474 L152.516,212.474 C152.228,212.474 152,212.702 152,212.99 C152,213.29 152.228,213.53 152.516,213.53 L154.556,213.53 L154.556,219.962 C154.556,220.286 154.82,220.55 155.144,220.55 C155.48,220.55 155.744,220.286 155.744,219.962 L155.744,213.53 L157.784,213.53 C158.072,213.53 158.3,213.29 158.3,213.014 Z M164.432,220.022 L164.432,215.126 C164.432,214.85 164.192,214.61 163.916,214.61 C163.604,214.61 163.364,214.85 163.364,215.126 L163.364,218.846 C163.04,219.29 162.428,219.674 161.756,219.674 C161.012,219.674 160.52,219.374 160.52,218.414 L160.52,215.126 C160.52,214.85 160.28,214.61 160.004,214.61 C159.692,214.61 159.452,214.85 159.452,215.126 L159.452,218.786 C159.452,220.01 160.076,220.622 161.3,220.622 C162.188,220.622 162.932,220.178 163.364,219.686 L163.364,220.022 C163.364,220.31 163.604,220.55 163.892,220.55 C164.192,220.55 164.432,220.31 164.432,220.022 Z M171.512,217.382 C171.512,217.154 171.452,216.902 171.404,216.71 C171.068,215.414 170.108,214.538 168.704,214.538 C167.024,214.538 165.812,215.894 165.812,217.574 C165.812,219.398 167.072,220.622 168.8,220.622 C169.532,220.622 171.02,220.298 171.02,219.65 C171.02,219.386 170.78,219.218 170.588,219.218 C170.504,219.218 170.42,219.242 170.348,219.278 C169.928,219.59 169.4,219.758 168.908,219.758 C167.732,219.758 167.012,218.918 166.928,217.922 L170.96,217.922 C171.26,217.922 171.512,217.67 171.512,217.382 Z M170.48,217.166 L166.928,217.166 C166.976,216.362 167.54,215.402 168.692,215.402 C169.928,215.402 170.456,216.386 170.48,217.166 Z" id="22Tue" fill="#9AA8B1" fill-rule="nonzero"></path>
            <path d="M209.198,207.722 C209.198,207.33 208.862,207.008 208.47,207.008 L205.012,207.008 L205.531418,206.611158 C207.718071,204.913 209.058,203.483 209.058,201.884 C209.058,200.022 207.476,199 205.642,199 C204.48,199 203.108,199.462 202.534,200.19 C202.45,200.316 202.408,200.456 202.408,200.582 C202.408,201.016 202.758,201.338 203.15,201.338 C203.318,201.338 203.472,201.282 203.626,201.17 C204.172,200.736 204.858,200.484 205.67,200.484 C206.524,200.484 207.35,200.932 207.35,201.884 C207.35,203.172 205.964,204.418 202.562,206.98 C202.338,207.148 202.226,207.4 202.226,207.666 C202.226,208.142 202.604,208.478 202.996,208.478 L208.47,208.478 C208.862,208.478 209.198,208.156 209.198,207.722 Z M217.36,205.93 C217.36,204.488 216.1,203.746 215.19,203.662 C216.17,203.494 217.22,202.752 217.22,201.52 C217.22,199.952 215.862,199 213.832,199 C212.649,199 211.707429,199.350071 210.984867,199.926913 L210.822,200.064 C210.654,200.19 210.57,200.372 210.57,200.568 C210.57,200.974 210.948,201.268 211.298,201.268 C211.452,201.268 211.592,201.226 211.718,201.142 C212.292,200.708 212.936,200.484 213.678,200.484 C214.714,200.484 215.54,200.918 215.54,201.772 C215.54,202.766 214.518,203.018 213.23,202.976 C212.782,202.976 212.474,203.298 212.474,203.704 C212.474,204.334 213.034,204.516 213.65,204.46 C214.98,204.46 215.694,204.852 215.694,205.762 C215.694,206.602 214.994,207.162 213.776,207.162 C213.02,207.162 212.25,206.896 211.634,206.434 C211.508,206.35 211.354,206.294 211.2,206.294 C210.808,206.294 210.458,206.644 210.458,207.05 C210.458,207.19 210.5,207.302 210.584,207.414 C211.102,208.142 212.474,208.646 213.818,208.646 C215.988,208.646 217.36,207.512 217.36,205.93 Z M207.96,212.906 C207.96,212.63 207.732,212.414 207.432,212.414 C207.192,212.414 206.976,212.57 206.916,212.798 L205.236,219.146 L203.484,212.774 C203.424,212.558 203.22,212.402 202.992,212.402 C202.74,212.402 202.548,212.558 202.488,212.774 L200.736,219.146 L199.044,212.798 C198.984,212.558 198.756,212.402 198.516,212.402 C198.204,212.402 198,212.654 198,212.906 C198,212.954 198.012,213.002 198.024,213.05 L200.016,220.07 C200.08,220.315333 200.276741,220.503778 200.547226,220.542626 L200.664,220.55 C200.988,220.55 201.24,220.346 201.324,220.058 L202.98,214.022 L204.624,220.058 C204.688,220.303333 204.894222,220.501259 205.158387,220.542214 L205.272,220.55 C205.584,220.55 205.86,220.346 205.944,220.058 L207.936,213.05 C207.948,213.002 207.96,212.954 207.96,212.906 Z M214.476,217.382 C214.476,217.178 214.428,216.962 214.392,216.782 C214.092,215.45 213.144,214.538 211.704,214.538 C210.048,214.538 208.848,215.894 208.848,217.574 C208.848,219.386 210.084,220.622 211.8,220.622 C212.508,220.622 214.008,220.274 214.008,219.65 C214.008,219.422 213.804,219.278 213.648,219.278 C213.576,219.278 213.504,219.302 213.444,219.338 C212.988,219.698 212.436,219.878 211.884,219.878 C210.636,219.878 209.868,218.966 209.796,217.874 L213.984,217.874 C214.26,217.874 214.476,217.646 214.476,217.382 Z M213.6,217.214 L209.796,217.214 C209.844,216.326 210.456,215.282 211.692,215.282 C213.012,215.282 213.588,216.35 213.6,217.214 Z M221.04,220.106 L221.04,212.834 C221.04,212.606 220.836,212.402 220.608,212.402 C220.344,212.402 220.14,212.606 220.14,212.834 L220.14,215.558 C219.672,214.922 218.964,214.538 218.184,214.538 C216.66,214.538 215.604,215.738 215.604,217.586 C215.604,219.47 216.672,220.622 218.184,220.622 C219,220.622 219.708,220.202 220.14,219.614 L220.14,220.106 C220.14,220.346 220.344,220.55 220.584,220.55 C220.836,220.55 221.04,220.346 221.04,220.106 Z M220.14,218.906 C219.816,219.41 219.12,219.818 218.4,219.818 C217.236,219.818 216.54,218.87 216.54,217.586 C216.54,216.302 217.236,215.342 218.4,215.342 C219.12,215.342 219.816,215.774 220.14,216.278 L220.14,218.906 Z" id="23Wed" fill="#0084D6" fill-rule="nonzero"></path>
            <path d="M80.4,59.671 C80.4,57.214 78.645,55.329 75.954,55.329 L73.77,55.329 C73.341,55.329 72.99,55.68 72.99,56.109 L72.99,63.22 C72.99,63.649 73.341,64 73.77,64 L75.954,64 C78.645,64 80.4,62.141 80.4,59.671 Z M79.282,59.671 C79.282,61.53 78.06,63.038 75.954,63.038 L74.069,63.038 L74.069,56.291 L75.954,56.291 C78.099,56.291 79.282,57.799 79.282,59.671 Z M87.264,63.597 L87.264,58.111 C87.264,57.864 87.043,57.643 86.796,57.643 C86.51,57.643 86.289,57.864 86.289,58.111 L86.289,62.336 C85.925,62.843 85.197,63.285 84.43,63.285 C83.585,63.285 83.026,62.96 83.026,61.855 L83.026,58.111 C83.026,57.864 82.805,57.643 82.558,57.643 C82.272,57.643 82.051,57.864 82.051,58.111 L82.051,62.154 C82.051,63.519 82.74,64.156 84.053,64.156 C84.989,64.156 85.808,63.662 86.289,63.116 L86.289,63.597 C86.289,63.857 86.51,64.078 86.77,64.078 C87.043,64.078 87.264,63.857 87.264,63.597 Z M94.947,60.646 C94.947,60.425 94.895,60.191 94.856,59.996 C94.531,58.553 93.504,57.565 91.944,57.565 C90.15,57.565 88.85,59.034 88.85,60.854 C88.85,62.817 90.189,64.156 92.048,64.156 C92.815,64.156 94.44,63.779 94.44,63.103 C94.44,62.856 94.219,62.7 94.05,62.7 C93.972,62.7 93.894,62.726 93.829,62.765 C93.335,63.155 92.737,63.35 92.139,63.35 C90.787,63.35 89.955,62.362 89.877,61.179 L94.414,61.179 C94.713,61.179 94.947,60.932 94.947,60.646 Z M93.998,60.464 L89.877,60.464 C89.929,59.502 90.592,58.371 91.931,58.371 C93.361,58.371 93.985,59.528 93.998,60.464 Z M102.305,63.545 L102.305,55.849 C102.305,55.511 102.019,55.264 101.694,55.264 C101.525,55.264 101.369,55.316 101.265,55.433 L99.432,57.305 C99.341,57.396 99.302,57.513 99.302,57.63 C99.302,57.903 99.536,58.098 99.77,58.098 C99.887,58.098 99.991,58.059 100.082,57.968 L101.226,56.759 L101.226,63.545 C101.226,63.844 101.46,64.078 101.759,64.078 C102.071,64.078 102.305,63.844 102.305,63.545 Z M110.612,59.671 C110.612,57.552 109.663,55.199 107.297,55.199 C104.918,55.199 103.982,57.552 103.982,59.671 C103.982,61.777 104.918,64.156 107.297,64.156 C109.663,64.156 110.612,61.777 110.612,59.671 Z M109.507,59.671 C109.507,61.4 108.948,63.194 107.297,63.194 C105.646,63.194 105.087,61.4 105.087,59.671 C105.087,57.942 105.646,56.161 107.297,56.161 C108.948,56.161 109.507,57.942 109.507,59.671 Z M115.019,55.29 C115.019,55.108 114.863,54.926 114.655,54.926 C114.499,54.926 114.369,55.017 114.317,55.16 L111.392,63.922 C111.379,63.961 111.366,64 111.366,64.039 C111.366,64.234 111.535,64.403 111.743,64.403 C111.899,64.403 112.029,64.312 112.081,64.169 L115.006,55.407 C115.019,55.368 115.019,55.329 115.019,55.29 Z M118.516,63.545 L118.516,55.849 C118.516,55.511 118.23,55.264 117.905,55.264 C117.736,55.264 117.58,55.316 117.476,55.433 L115.643,57.305 C115.552,57.396 115.513,57.513 115.513,57.63 C115.513,57.903 115.747,58.098 115.981,58.098 C116.098,58.098 116.202,58.059 116.293,57.968 L117.437,56.759 L117.437,63.545 C117.437,63.844 117.671,64.078 117.97,64.078 C118.282,64.078 118.516,63.844 118.516,63.545 Z M126.823,59.671 C126.823,57.552 125.874,55.199 123.508,55.199 C121.129,55.199 120.193,57.552 120.193,59.671 C120.193,61.777 121.129,64.156 123.508,64.156 C125.874,64.156 126.823,61.777 126.823,59.671 Z M125.718,59.671 C125.718,61.4 125.159,63.194 123.508,63.194 C121.857,63.194 121.298,61.4 121.298,59.671 C121.298,57.942 121.857,56.161 123.508,56.161 C125.159,56.161 125.718,57.942 125.718,59.671 Z M131.23,55.29 C131.23,55.108 131.074,54.926 130.866,54.926 C130.71,54.926 130.58,55.017 130.528,55.16 L127.603,63.922 C127.59,63.961 127.577,64 127.577,64.039 C127.577,64.234 127.746,64.403 127.954,64.403 C128.11,64.403 128.24,64.312 128.292,64.169 L131.217,55.407 C131.23,55.368 131.23,55.329 131.23,55.29 Z M138.068,63.506 C138.068,63.246 137.86,63.038 137.6,63.038 L133.739,63.038 L134.493285,62.4334876 C136.520834,60.7797806 137.951,59.3255714 137.951,57.747 C137.951,56.018 136.482,55.199 135.039,55.199 C133.973,55.199 132.985,55.563 132.27,56.278 C132.179,56.369 132.14,56.499 132.14,56.616 C132.14,56.889 132.387,57.097 132.634,57.097 C132.738,57.097 132.855,57.058 132.946,56.967 C133.466,56.46 134.181,56.161 135.039,56.161 C135.936,56.161 136.846,56.642 136.846,57.747 C136.846,59.203 135.156,60.724 132.114,63.077 C131.984,63.181 131.919,63.324 131.919,63.48 C131.919,63.779 132.166,64 132.413,64 L137.6,64 C137.86,64 138.068,63.792 138.068,63.506 Z M146.271,59.671 C146.271,57.552 145.322,55.199 142.956,55.199 C140.577,55.199 139.641,57.552 139.641,59.671 C139.641,61.777 140.577,64.156 142.956,64.156 C145.322,64.156 146.271,61.777 146.271,59.671 Z M145.166,59.671 C145.166,61.4 144.607,63.194 142.956,63.194 C141.305,63.194 140.746,61.4 140.746,59.671 C140.746,57.942 141.305,56.161 142.956,56.161 C144.607,56.161 145.166,57.942 145.166,59.671 Z M150.327,63.545 L150.327,55.849 C150.327,55.511 150.041,55.264 149.716,55.264 C149.547,55.264 149.391,55.316 149.287,55.433 L147.454,57.305 C147.363,57.396 147.324,57.513 147.324,57.63 C147.324,57.903 147.558,58.098 147.792,58.098 C147.909,58.098 148.013,58.059 148.104,57.968 L149.248,56.759 L149.248,63.545 C149.248,63.844 149.482,64.078 149.781,64.078 C150.093,64.078 150.327,63.844 150.327,63.545 Z M158.387,61.322 C158.387,59.476 157.113,58.553 155.553,58.553 C154.435,58.553 153.473,59.307 153.096,59.905 C153.083,59.788 153.083,59.684 153.083,59.567 C153.083,57.864 153.85,56.161 155.527,56.161 C156.229,56.161 156.684,56.382 157.061,56.72 C157.152,56.798 157.269,56.837 157.386,56.837 C157.646,56.837 157.867,56.616 157.867,56.356 C157.867,56.239 157.828,56.122 157.737,56.031 C157.152,55.472 156.476,55.199 155.527,55.199 C153.096,55.199 152.004,57.331 152.004,59.684 C152.004,62.037 152.927,64.156 155.345,64.156 C157.243,64.156 158.387,62.83 158.387,61.322 Z M157.295,61.361 C157.295,62.193 156.645,63.194 155.306,63.194 C153.798,63.194 153.226,61.868 153.122,60.789 C153.603,60.022 154.435,59.489 155.293,59.489 C156.411,59.489 157.295,60.087 157.295,61.361 Z" id="Due10/10/2016" fill="#343536" fill-rule="nonzero"></path>
            <path d="M88.414,31.186 C85.853,31.186 83.864,33.006 83.864,35.671 C83.864,38.336 85.853,40.156 88.414,40.156 C89.831,40.156 90.806,39.558 91.469,38.804 C91.573,38.674 91.625,38.505 91.625,38.349 C91.625,37.972 91.313,37.647 90.91,37.647 C90.702,37.647 90.494,37.738 90.338,37.894 C89.844,38.466 89.129,38.778 88.414,38.778 C86.711,38.778 85.45,37.465 85.45,35.671 C85.45,33.864 86.711,32.564 88.414,32.564 C89.129,32.564 89.844,32.902 90.338,33.461 C90.494,33.63 90.702,33.708 90.897,33.708 C91.3,33.708 91.638,33.396 91.638,32.993 C91.638,32.837 91.573,32.668 91.469,32.538 C90.806,31.784 89.831,31.186 88.414,31.186 Z M98.723,39.389 L98.723,34.319 C98.723,33.955 98.411,33.643 98.047,33.643 C97.631,33.643 97.332,33.955 97.332,34.319 L97.332,38.115 C97.007,38.531 96.422,38.921 95.733,38.921 C94.979,38.921 94.485,38.622 94.485,37.66 L94.485,34.319 C94.485,33.955 94.173,33.643 93.809,33.643 C93.393,33.643 93.094,33.955 93.094,34.319 L93.094,38.167 C93.094,39.441 93.757,40.156 95.109,40.156 C96.097,40.156 96.877,39.675 97.332,39.168 L97.332,39.389 C97.332,39.766 97.631,40.078 98.021,40.078 C98.411,40.078 98.723,39.766 98.723,39.389 Z M103.975,34.241 C103.975,33.903 103.741,33.643 103.364,33.643 C102.701,33.643 102.207,34.189 101.869,34.644 L101.869,34.319 C101.869,33.955 101.557,33.643 101.193,33.643 C100.777,33.643 100.478,33.955 100.478,34.319 L100.478,39.389 C100.478,39.766 100.777,40.078 101.154,40.078 L101.18,40.078 C101.557,40.078 101.869,39.766 101.869,39.389 L101.869,35.736 C102.207,35.255 102.74,35.021 103.299,34.969 C103.689,34.917 103.975,34.657 103.975,34.241 Z M108.499,34.241 C108.499,33.903 108.265,33.643 107.888,33.643 C107.225,33.643 106.731,34.189 106.393,34.644 L106.393,34.319 C106.393,33.955 106.081,33.643 105.717,33.643 C105.301,33.643 105.002,33.955 105.002,34.319 L105.002,39.389 C105.002,39.766 105.301,40.078 105.678,40.078 L105.704,40.078 C106.081,40.078 106.393,39.766 106.393,39.389 L106.393,35.736 C106.731,35.255 107.264,35.021 107.823,34.969 C108.213,34.917 108.499,34.657 108.499,34.241 Z M115.402,36.633 C115.402,36.36 115.324,36.061 115.246,35.801 C114.856,34.449 113.79,33.565 112.321,33.565 C110.462,33.565 109.136,35.034 109.136,36.854 C109.136,38.843 110.54,40.156 112.425,40.156 L112.675129,40.1471003 C113.523426,40.0905578 114.843,39.7629048 114.843,39.116 C114.843,38.778 114.544,38.544 114.258,38.544 C114.167,38.544 114.063,38.57 113.972,38.622 C113.543,38.895 113.023,39.038 112.568,39.038 C111.398,39.038 110.683,38.245 110.592,37.309 L114.726,37.309 C115.103,37.309 115.402,36.997 115.402,36.633 Z M114.063,36.347 L110.579,36.347 C110.644,35.593 111.177,34.683 112.321,34.683 C113.543,34.683 114.037,35.619 114.063,36.347 Z M122.396,39.389 L122.396,35.58 C122.396,34.306 121.72,33.565 120.368,33.565 C119.367,33.565 118.574,34.085 118.158,34.579 L118.158,34.319 C118.158,33.955 117.846,33.643 117.482,33.643 C117.066,33.643 116.767,33.955 116.767,34.319 L116.767,39.389 C116.767,39.766 117.066,40.078 117.456,40.078 C117.846,40.078 118.158,39.766 118.158,39.389 L118.158,35.632 C118.457,35.203 119.055,34.8 119.744,34.8 C120.511,34.8 121.005,35.125 121.005,36.087 L121.005,39.389 C121.005,39.766 121.304,40.078 121.694,40.078 C122.084,40.078 122.396,39.766 122.396,39.389 Z M127.31,39.48 C127.31,39.142 127.076,38.882 126.699,38.882 C126.621,38.882 126.504,38.921 126.413,38.921 C126.088,38.921 125.815,38.661 125.815,38.18 L125.815,34.943 L126.582,34.943 C126.907,34.943 127.167,34.67 127.167,34.345 C127.167,33.994 126.907,33.721 126.582,33.721 L125.815,33.721 L125.815,32.616 C125.815,32.239 125.516,31.927 125.139,31.927 C124.736,31.927 124.424,32.239 124.424,32.616 L124.424,33.721 L123.904,33.721 C123.579,33.721 123.306,33.994 123.306,34.319 C123.306,34.67 123.579,34.943 123.904,34.943 L124.424,34.943 L124.424,38.531 C124.424,39.584 124.983,40.156 126.049,40.156 C126.933,40.156 127.31,39.896 127.31,39.48 Z M138.633,37.66 C138.633,36.594 137.879,35.671 136.956,35.528 C137.762,35.359 138.464,34.631 138.464,33.539 C138.464,32.33 137.593,31.329 135.994,31.329 L132.64,31.329 C132.12,31.329 131.704,31.758 131.704,32.265 L131.704,39.064 C131.704,39.571 132.12,40 132.64,40 L136.111,40 C137.736,40 138.633,38.999 138.633,37.66 Z M136.878,33.799 C136.878,34.436 136.436,34.904 135.669,34.904 L133.251,34.904 L133.251,32.681 L135.669,32.681 C136.436,32.681 136.878,33.162 136.878,33.799 Z M137.047,37.452 C137.047,38.193 136.553,38.648 135.734,38.648 L133.251,38.648 L133.251,36.256 L135.734,36.256 C136.592,36.256 137.047,36.815 137.047,37.452 Z M140.804,31.251 C140.336,31.251 139.946,31.628 139.946,32.096 C139.946,32.577 140.336,32.954 140.804,32.954 C141.272,32.954 141.662,32.577 141.662,32.096 C141.662,31.628 141.272,31.251 140.804,31.251 Z M141.506,39.389 L141.506,34.319 C141.506,33.955 141.194,33.643 140.83,33.643 C140.414,33.643 140.115,33.955 140.115,34.319 L140.115,39.389 C140.115,39.766 140.414,40.078 140.804,40.078 C141.194,40.078 141.506,39.766 141.506,39.389 Z M144.652,39.389 L144.652,31.927 C144.652,31.563 144.34,31.251 143.976,31.251 C143.56,31.251 143.261,31.563 143.261,31.927 L143.261,39.389 C143.261,39.766 143.56,40.078 143.95,40.078 C144.34,40.078 144.652,39.766 144.652,39.389 Z M147.798,39.389 C147.798,39.766 147.486,40.078 147.096,40.078 C146.706,40.078 146.407,39.766 146.407,39.389 L146.407,31.927 C146.407,31.563 146.706,31.251 147.122,31.251 C147.486,31.251 147.798,31.563 147.798,31.927 L147.798,39.389 Z" id="CurrentBill" fill="#343536" fill-rule="nonzero"></path>
            <path d="M67.5,136.376 C67.5,131.696 63.576,130.292 59.868,129.248 L59.868,121.436 C61.488,121.652 62.928,122.228 64.332,123.416 C64.584,123.632 64.908,123.74 65.196,123.74 C65.988,123.74 66.6,123.056 66.6,122.264 C66.6,121.868 66.456,121.472 66.132,121.22 C64.368,119.708 62.388,118.952 59.868,118.7 L59.868,116.18 C59.868,115.604 59.4,115.136 58.824,115.136 C58.14,115.136 57.672,115.604 57.672,116.18 L57.672,118.664 C53.316,118.916 50.184,121.544 50.184,125.288 C50.184,129.716 54,130.94 57.672,131.948 L57.672,140.732 C55.368,140.48 53.424,139.436 51.984,138.176 C51.732,137.96 51.444,137.852 51.12,137.852 C50.328,137.852 49.752,138.644 49.752,139.364 C49.752,139.76 49.896,140.156 50.22,140.444 C52.056,142.1 54.576,143.216 57.672,143.396 L57.672,145.772 C57.672,146.348 58.14,146.816 58.824,146.816 C59.4,146.816 59.868,146.348 59.868,145.772 L59.868,143.396 C65.412,142.964 67.5,139.652 67.5,136.376 Z M57.672,121.328 L57.672,128.672 L57.2048737,128.531007 C54.9812529,127.840216 53.28,126.993935 53.28,125.108 C53.28,122.984 55.08,121.508 57.672,121.328 Z M64.404,136.628 C64.404,138.32 63.288,140.372 59.868,140.732 L59.868,132.56 L60.3342246,132.704562 C62.632125,133.442844 64.404,134.43425 64.404,136.628 Z M87.912,141.632 C87.912,140.912 87.336,140.336 86.616,140.336 L75.924,140.336 L77.0234444,139.461451 C83.1566667,134.546667 87.588,130.308 87.588,125.684 C87.588,120.896 83.52,118.628 79.524,118.628 C76.572,118.628 73.836,119.636 71.856,121.616 C71.604,121.868 71.496,122.228 71.496,122.552 C71.496,123.308 72.18,123.884 72.864,123.884 C73.152,123.884 73.476,123.776 73.728,123.524 C75.168,122.12 77.148,121.292 79.524,121.292 C82.008,121.292 84.528,122.624 84.528,125.684 C84.528,129.716 79.848,133.928 71.424,140.444 C71.064,140.732 70.884,141.128 70.884,141.56 C70.884,142.388 71.568,143 72.252,143 L86.616,143 C87.336,143 87.912,142.424 87.912,141.632 Z M110.62607,131.285901 L110.628,131.012 C110.628,125.144 108,118.628 101.448,118.628 C94.86,118.628 92.268,125.144 92.268,131.012 C92.268,136.844 94.86,143.432 101.448,143.432 C107.897625,143.432 110.544917,137.048267 110.62607,131.285901 L110.62607,131.285901 Z M107.566456,130.750724 L107.568,131.012 C107.568,135.8 106.02,140.768 101.448,140.768 C96.876,140.768 95.328,135.8 95.328,131.012 C95.328,126.224 96.876,121.292 101.448,121.292 C105.936873,121.292 107.510709,126.046285 107.566456,130.750724 L107.566456,130.750724 Z M131.976,135.584 C131.976,130.472 128.448,127.916 124.128,127.916 C121.032,127.916 118.368,130.004 117.324,131.66 C117.288,131.336 117.288,131.048 117.288,130.724 C117.288,126.008 119.412,121.292 124.056,121.292 C126,121.292 127.26,121.904 128.304,122.84 C128.556,123.056 128.88,123.164 129.204,123.164 C129.924,123.164 130.536,122.552 130.536,121.832 C130.536,121.508 130.428,121.184 130.176,120.932 C128.556,119.384 126.684,118.628 124.056,118.628 C117.324,118.628 114.3,124.532 114.3,131.048 C114.3,137.564 116.856,143.432 123.552,143.432 C128.808,143.432 131.976,139.76 131.976,135.584 Z M128.952,135.692 C128.952,137.996 127.152,140.768 123.444,140.768 C119.268,140.768 117.684,137.096 117.396,134.108 C118.728,131.984 121.032,130.508 123.408,130.508 C126.504,130.508 128.952,132.164 128.952,135.692 Z M139.86,141.38 C139.86,140.3 138.96,139.4 137.88,139.4 C136.8,139.4 135.9,140.3 135.9,141.38 C135.9,142.46 136.8,143.36 137.88,143.36 C138.96,143.36 139.86,142.46 139.86,141.38 Z M162.216,131.012 C162.216,125.144 159.588,118.628 153.036,118.628 C146.549354,118.628 143.9367,124.94505 143.857846,130.740735 L143.856,131.012 C143.856,136.844 146.448,143.432 153.036,143.432 C159.588,143.432 162.216,136.844 162.216,131.012 Z M159.156,131.012 L159.150009,131.525454 C159.041571,136.14852 157.444714,140.768 153.036,140.768 C148.545643,140.768 146.97225,135.975844 146.917489,131.268643 L146.916,131.012 C146.916,126.224 148.464,121.292 153.036,121.292 C157.608,121.292 159.156,126.224 159.156,131.012 Z M184.248,131.012 C184.248,125.144 181.62,118.628 175.068,118.628 C168.581354,118.628 165.9687,124.94505 165.889846,130.740735 L165.888,131.012 C165.888,136.844 168.48,143.432 175.068,143.432 C181.62,143.432 184.248,136.844 184.248,131.012 Z M181.188,131.012 L181.182009,131.525454 C181.073571,136.14852 179.476714,140.768 175.068,140.768 C170.577643,140.768 169.00425,135.975844 168.949489,131.268643 L168.948,131.012 C168.948,126.224 170.496,121.292 175.068,121.292 C179.64,121.292 181.188,126.224 181.188,131.012 Z" id="$206.00" fill="#3F4142" fill-rule="nonzero"></path>
            <rect id="Rectangle-4-Copy" fill="#FFFFFF" x="272" y="0" width="232" height="314" rx="4"></rect>
            <path d="M413,257.996491 C413,256.89386 413.898855,256 415.004923,256 L454.995077,256 C456.102365,256 457,256.887832 457,257.996491 L457,314 L413,314 L413,257.996491 Z" id="Selected-one" fill="#1F88DE" style="mix-blend-mode: multiply;"></path>
            <path d="M366,300.991884 C366,299.891797 366.898855,299 368.004923,299 L407.995077,299 C409.102365,299 410,299.893397 410,300.991884 L410,314 L366,314 L366,300.991884 Z" id="Selected-one-Copy-2" fill="#1F88DE" style="mix-blend-mode: multiply;"></path>
            <path d="M318,199 L318,314 L317,314 L317,199 L318,199 Z M365,199 L365,314 L364,314 L364,199 L365,199 Z M412,199 L412,314 L411,314 L411,199 L412,199 Z M459,199 L459,314 L458,314 L458,199 L459,199 Z" id="Combined-Shape" fill="#F3F4F5" style="mix-blend-mode: multiply;"></path>
            <path d="M381.454767,201.894049 L381.449707,202.089844 L382.898926,202.089844 L382.898926,202.069336 C382.898926,201.043945 383.712402,200.264648 384.79248,200.264648 C385.817871,200.264648 386.61084,200.961914 386.61084,201.836914 C386.61084,202.609375 386.296387,203.128906 385.093262,204.379883 L381.531738,208.009766 L381.531738,209.048828 L388.278809,209.048828 L388.278809,207.756836 L383.596191,207.756836 L383.596191,207.722656 L386.063965,205.241211 L386.472077,204.815988 C387.623242,203.590811 388.121582,202.795313 388.121582,201.761719 C388.121582,200.196289 386.720215,199 384.840332,199 C382.94607,199 381.548873,200.210798 381.454767,201.894049 Z M392.134277,209.048828 L393.631348,209.048828 L393.631348,199.18457 L392.120605,199.18457 L389.522949,201.030273 L389.522949,202.53418 L392.100098,200.702148 L392.134277,200.702148 L392.134277,209.048828 Z M385.554688,223.048828 L385.554688,214.59375 L384.03125,214.59375 L381.300781,221.267578 L381.253906,221.267578 L378.517578,214.59375 L377,214.59375 L377,223.048828 L378.195312,223.048828 L378.195312,216.826172 L378.236328,216.826172 L380.791016,222.984375 L381.763672,222.984375 L384.3125,216.826172 L384.353516,216.826172 L384.353516,223.048828 L385.554688,223.048828 Z M389.708984,223.125 C391.548828,223.125 392.714844,221.871094 392.714844,219.867188 C392.714844,217.863281 391.542969,216.603516 389.708984,216.603516 C387.875,216.603516 386.697266,217.869141 386.697266,219.867188 C386.697266,221.871094 387.869141,223.125 389.708984,223.125 Z M389.708984,222.070312 C388.630859,222.070312 387.986328,221.255859 387.986328,219.867188 C387.986328,218.484375 388.630859,217.658203 389.708984,217.658203 C390.787109,217.658203 391.425781,218.478516 391.425781,219.867188 C391.425781,221.255859 390.787109,222.070312 389.708984,222.070312 Z M393.734375,223.048828 L393.734375,216.685547 L394.947266,216.685547 L394.947266,217.757812 L394.970703,217.757812 C395.357422,217.007812 395.996094,216.615234 396.980469,216.615234 C398.386719,216.615234 399.189453,217.505859 399.189453,218.970703 L399.189453,223.048828 L397.917969,223.048828 L397.917969,219.210938 C397.917969,218.244141 397.472656,217.705078 396.541016,217.705078 C395.580078,217.705078 395.005859,218.373047 395.005859,219.375 L395.005859,223.048828 L393.734375,223.048828 Z" id="21Mon" fill="#9AA8B1" fill-rule="nonzero"></path>
            <path d="M289.873535,209.055664 L291.370605,209.055664 L291.370605,199.191406 L289.859863,199.191406 L287.262207,201.037109 L287.262207,202.541016 L289.839355,200.708984 L289.873535,200.708984 L289.873535,209.055664 Z M297.078613,209.240234 C299.553223,209.240234 301.016113,207.285156 301.016113,203.983398 C301.016113,202.828125 300.811035,201.857422 300.407715,201.071289 C299.771973,199.745117 298.596191,199 297.133301,199 C295.04834,199 293.530762,200.435547 293.530762,202.411133 C293.530762,204.28418 294.932129,205.671875 296.805176,205.671875 C298.07666,205.671875 299.115723,205.029297 299.512207,204.058594 L299.539551,204.058594 C299.539551,206.546875 298.637207,207.96875 297.099121,207.96875 C296.189941,207.96875 295.437988,207.428711 295.205566,206.62207 L293.66748,206.62207 C293.961426,208.1875 295.321777,209.240234 297.078613,209.240234 Z M297.133301,204.420898 C295.937012,204.420898 295.055176,203.545898 295.055176,202.363281 C295.055176,201.214844 295.978027,200.305664 297.153809,200.305664 C298.32959,200.305664 299.245605,201.22168 299.245605,202.390625 C299.245605,203.552734 298.343262,204.420898 297.133301,204.420898 Z M286,220.729492 C286.099609,222.223633 287.341797,223.196289 289.134766,223.196289 C291.080078,223.196289 292.298828,222.229492 292.298828,220.682617 C292.298828,219.522461 291.650154,218.855511 290.060519,218.415119 L288.953125,218.12207 C287.804688,217.823242 287.335938,217.442383 287.335938,216.803711 C287.335938,215.977539 288.097656,215.40918 289.193359,215.40918 C290.294922,215.40918 291.027344,215.96582 291.121094,216.874023 L292.175781,216.874023 C292.128906,215.456055 290.910156,214.459961 289.228516,214.459961 C287.470703,214.459961 286.240234,215.444336 286.240234,216.850586 C286.240234,217.999023 286.931641,218.68457 288.490234,219.083008 L289.574219,219.364258 C290.710938,219.657227 291.208984,220.09668 291.208984,220.811523 C291.208984,221.643555 290.376953,222.24707 289.234375,222.24707 C288.027344,222.24707 287.160156,221.643555 287.060547,220.729492 L286,220.729492 Z M295.462891,222.229492 C294.666016,222.229492 294.15625,221.848633 294.15625,221.262695 C294.15625,220.65332 294.648438,220.307617 295.597656,220.249023 L297.25,220.143555 L297.25,220.65332 C297.25,221.561523 296.494141,222.229492 295.462891,222.229492 Z M295.246094,223.114258 C296.130859,223.114258 296.921875,222.663086 297.279297,221.959961 L297.302734,221.959961 L297.302734,223.055664 L298.269531,223.055664 L298.269531,218.719727 C298.269531,217.477539 297.308594,216.680664 295.814453,216.680664 C294.490234,216.680664 293.453125,217.495117 293.423828,218.561523 L294.402344,218.561523 C294.525391,217.963867 295.070312,217.588867 295.802734,217.588867 C296.734375,217.588867 297.25,218.022461 297.25,218.807617 L297.25,219.334961 L295.480469,219.44043 C293.945312,219.53418 293.113281,220.172852 293.113281,221.256836 C293.113281,222.375977 293.962891,223.114258 295.246094,223.114258 Z M299.957031,215.31543 L300.976562,215.31543 L300.976562,216.739258 L302.207031,216.739258 L302.207031,217.583008 L300.976562,217.583008 L300.976562,221.374023 C300.976562,221.954102 301.222656,222.217773 301.761719,222.217773 L301.949313,222.210836 C302.053516,222.204648 302.158984,222.195508 302.201172,222.188477 L302.201172,223.049805 C302.078125,223.079102 301.785156,223.102539 301.544922,223.102539 C300.402344,223.102539 299.957031,222.62793 299.957031,221.415039 L299.957031,217.583008 L299.078125,217.583008 L299.078125,216.739258 L299.957031,216.739258 L299.957031,215.31543 Z" id="19Sat" fill="#9AA8B1" fill-rule="nonzero"></path>
            <path d="M333.243829,201.894049 L333.23877,202.089844 L334.687988,202.089844 L334.687988,202.069336 C334.687988,201.043945 335.501465,200.264648 336.581543,200.264648 C337.606934,200.264648 338.399902,200.961914 338.399902,201.836914 C338.399902,202.609375 338.085449,203.128906 336.882324,204.379883 L333.320801,208.009766 L333.320801,209.048828 L340.067871,209.048828 L340.067871,207.756836 L335.385254,207.756836 L335.385254,207.722656 L337.853027,205.241211 L338.26114,204.815988 C339.412305,203.590811 339.910645,202.795313 339.910645,201.761719 C339.910645,200.196289 338.509277,199 336.629395,199 C334.735133,199 333.337935,200.210798 333.243829,201.894049 L333.243829,201.894049 Z M345.023926,209.233398 C347.38916,209.233398 348.776855,207.244141 348.776855,204.099609 C348.776855,200.975586 347.382324,199 345.023926,199 C342.672363,199 341.257324,200.982422 341.257324,204.106445 C341.257324,207.250977 342.658691,209.233398 345.023926,209.233398 Z M345.023926,207.948242 C343.615723,207.948242 342.809082,206.485352 342.809082,204.106445 C342.809082,201.761719 343.629395,200.285156 345.023926,200.285156 C346.418457,200.285156 347.231934,201.754883 347.231934,204.106445 C347.231934,206.492188 346.432129,207.948242 345.023926,207.948242 Z M331,220.693359 C331.082031,222.222656 332.347656,223.189453 334.222656,223.189453 C336.226562,223.189453 337.486328,222.199219 337.486328,220.617188 C337.486328,219.434613 336.826932,218.745245 335.251748,218.328585 L334.099609,218.044922 C333.009766,217.775391 332.564453,217.423828 332.564453,216.826172 C332.564453,216.076172 333.261719,215.560547 334.28125,215.560547 C335.300781,215.560547 335.998047,216.070312 336.074219,216.914062 L337.351562,216.914062 C337.310547,215.455078 336.085938,214.453125 334.298828,214.453125 C332.494141,214.453125 331.222656,215.455078 331.222656,216.914062 C331.222656,218.091797 331.943359,218.818359 333.496094,219.193359 L334.591797,219.457031 C335.6875,219.726562 336.150391,220.119141 336.150391,220.775391 C336.150391,221.53125 335.382812,222.082031 334.316406,222.082031 C333.203125,222.082031 332.388672,221.53125 332.294922,220.693359 L331,220.693359 Z M343.960938,216.685547 L342.689453,216.685547 L342.689453,220.353516 C342.689453,221.361328 342.109375,222.023438 341.160156,222.023438 C340.240234,222.023438 339.777344,221.501953 339.777344,220.523438 L339.777344,216.685547 L338.505859,216.685547 L338.505859,220.763672 C338.505859,222.222656 339.349609,223.119141 340.738281,223.119141 C341.710938,223.119141 342.355469,222.714844 342.724609,221.958984 L342.748047,221.958984 L342.748047,223.048828 L343.960938,223.048828 L343.960938,216.685547 Z M345.261719,223.048828 L345.261719,216.685547 L346.474609,216.685547 L346.474609,217.757812 L346.498047,217.757812 C346.884766,217.007812 347.523438,216.615234 348.507812,216.615234 C349.914062,216.615234 350.716797,217.505859 350.716797,218.970703 L350.716797,223.048828 L349.445312,223.048828 L349.445312,219.210938 C349.445312,218.244141 349,217.705078 348.068359,217.705078 C347.107422,217.705078 346.533203,218.373047 346.533203,219.375 L346.533203,223.048828 L345.261719,223.048828 Z" id="20Sun" fill="#9AA8B1" fill-rule="nonzero"></path>
            <path d="M427.498224,201.894049 L427.493164,202.089844 L428.942383,202.089844 L428.942383,202.069336 C428.942383,201.043945 429.755859,200.264648 430.835938,200.264648 C431.861328,200.264648 432.654297,200.961914 432.654297,201.836914 C432.654297,202.609375 432.339844,203.128906 431.136719,204.379883 L427.575195,208.009766 L427.575195,209.048828 L434.322266,209.048828 L434.322266,207.756836 L429.639648,207.756836 L429.639648,207.722656 L432.107422,205.241211 L432.515534,204.815988 C433.666699,203.590811 434.165039,202.795313 434.165039,201.761719 C434.165039,200.196289 432.763672,199 430.883789,199 C428.989527,199 427.59233,200.210798 427.498224,201.894049 L427.498224,201.894049 Z M435.605646,201.894049 L435.600586,202.089844 L437.049805,202.089844 L437.049805,202.069336 C437.049805,201.043945 437.863281,200.264648 438.943359,200.264648 C439.96875,200.264648 440.761719,200.961914 440.761719,201.836914 C440.761719,202.609375 440.447266,203.128906 439.244141,204.379883 L435.682617,208.009766 L435.682617,209.048828 L442.429688,209.048828 L442.429688,207.756836 L437.74707,207.756836 L437.74707,207.722656 L440.214844,205.241211 C441.657227,203.764648 442.272461,202.910156 442.272461,201.761719 C442.272461,200.196289 440.871094,199 438.991211,199 C437.096949,199 435.699752,200.210798 435.605646,201.894049 L435.605646,201.894049 Z M428.949219,223.048828 L428.949219,215.724609 L431.580078,215.724609 L431.580078,214.59375 L425,214.59375 L425,215.724609 L427.636719,215.724609 L427.636719,223.048828 L428.949219,223.048828 Z M437.949219,216.685547 L436.677734,216.685547 L436.677734,220.353516 C436.677734,221.361328 436.097656,222.023438 435.148438,222.023438 C434.228516,222.023438 433.765625,221.501953 433.765625,220.523438 L433.765625,216.685547 L432.494141,216.685547 L432.494141,220.763672 C432.494141,222.222656 433.337891,223.119141 434.726562,223.119141 C435.699219,223.119141 436.34375,222.714844 436.712891,221.958984 L436.736328,221.958984 L436.736328,223.048828 L437.949219,223.048828 L437.949219,216.685547 Z M441.904297,216.603516 C443.650391,216.603516 444.751953,217.816406 444.751953,219.744141 L444.751953,220.189453 L440.246094,220.189453 L440.246094,220.265625 C440.246094,221.367188 440.9375,222.09375 441.980469,222.09375 C442.71875,222.09375 443.298828,221.742188 443.474609,221.185547 L444.6875,221.185547 C444.505859,222.328125 443.386719,223.125 441.957031,223.125 C440.111328,223.125 438.962891,221.882812 438.962891,219.890625 C438.962891,217.898438 440.123047,216.603516 441.904297,216.603516 Z M441.898438,217.640625 C440.984375,217.640625 440.322266,218.308594 440.251953,219.287109 L440.251953,219.287109 L443.480469,219.287109 C443.451172,218.296875 442.824219,217.640625 441.898438,217.640625 Z" id="22Tue" fill="#9AA8B1" fill-rule="nonzero"></path>
            <path d="M474.096955,201.937779 L474.091797,202.144531 L475.746094,202.144531 L475.746094,202.117188 C475.746094,201.139648 476.511719,200.415039 477.537109,200.415039 C478.514648,200.415039 479.246094,201.064453 479.246094,201.87793 C479.246094,202.616211 478.938477,203.12207 477.817383,204.263672 L474.1875,207.873047 L474.1875,209.0625 L481.119141,209.0625 L481.119141,207.620117 L476.539062,207.620117 L476.539062,207.585938 L478.979492,205.172852 C480.271484,203.867188 480.96875,202.978516 480.96875,201.802734 C480.96875,200.203125 479.560547,199 477.591797,199 C475.618332,199 474.192913,200.217171 474.096955,201.937779 L474.096955,201.937779 Z M484.701172,204.666992 L485.917969,204.666992 C487.141602,204.666992 487.893555,205.275391 487.893555,206.273438 C487.893555,207.182617 487.09375,207.818359 485.958984,207.818359 C484.783203,207.818359 484.044922,207.216797 483.962891,206.314453 L482.28125,206.314453 C482.370117,208.071289 483.77832,209.260742 485.945312,209.260742 C488.098633,209.260742 489.68457,208.084961 489.68457,206.341797 C489.68457,204.967773 488.727539,204.06543 487.250977,203.956055 L487.250977,203.915039 C488.467773,203.703125 489.288086,202.821289 489.288086,201.597656 C489.288086,200.05957 487.907227,199 485.96582,199 C483.928711,199 482.568359,200.148438 482.472656,201.918945 L484.113281,201.918945 C484.181641,200.996094 484.865234,200.401367 485.883789,200.401367 C486.991211,200.401367 487.592773,200.975586 487.592773,201.836914 C487.592773,202.71875 486.902344,203.34082 485.890625,203.34082 L484.701172,203.34082 L484.701172,204.666992 Z M475.25,216.353516 L475.308594,216.353516 L477.259766,223.0625 L478.255859,223.0625 L480.558594,214.607422 L479.457031,214.607422 L477.763672,221.509766 L477.716797,221.509766 L475.8125,214.607422 L474.746094,214.607422 L472.841797,221.509766 L472.794922,221.509766 L471.101562,214.607422 L470,214.607422 L472.302734,223.0625 L473.298828,223.0625 L475.25,216.353516 Z M484.033203,217.583984 C485.029297,217.583984 485.708984,218.298828 485.732422,219.371094 L482.257812,219.371094 C482.328125,218.304688 483.042969,217.583984 484.033203,217.583984 Z M485.708984,221.257812 C485.527344,221.849609 484.912109,222.224609 484.121094,222.224609 C483.049665,222.224609 482.329002,221.517764 482.262797,220.412828 L482.257812,220.185547 L486.792969,220.185547 L486.792969,219.787109 C486.792969,217.876953 485.738281,216.6875 484.050781,216.6875 C482.328125,216.6875 481.203125,217.970703 481.203125,219.927734 C481.203125,221.884766 482.322266,223.121094 484.097656,223.121094 C485.445312,223.121094 486.541016,222.341797 486.716797,221.257812 L485.708984,221.257812 Z M490.261719,223.121094 C491.175781,223.121094 491.896484,222.722656 492.306641,221.996094 L492.324219,221.996094 L492.324219,223.0625 L493.296875,223.0625 L493.296875,214.238281 L492.277344,214.238281 L492.277344,217.771484 L492.253906,217.771484 C491.867188,217.080078 491.140625,216.6875 490.238281,216.6875 C488.667969,216.6875 487.554688,217.976562 487.554688,219.904297 C487.554688,221.832031 488.673828,223.121094 490.261719,223.121094 Z M490.443359,217.595703 C491.539062,217.595703 492.283203,218.533203 492.283203,219.904297 C492.283203,221.28125 491.539062,222.212891 490.443359,222.212891 C489.335938,222.212891 488.597656,221.304688 488.597656,219.904297 C488.597656,218.509766 489.335938,217.595703 490.443359,217.595703 Z" id="23Wed" fill="#1F88DE" fill-rule="nonzero"></path>
            <path d="M343.628174,54.840332 L343.628174,64 L346.770264,64 C349.493408,64 351.093018,62.3051758 351.093018,59.4169922 C351.093018,56.5351562 349.487061,54.840332 346.770264,54.840332 L343.628174,54.840332 Z M344.770752,55.8686523 L346.694092,55.8686523 C348.776123,55.8686523 349.925049,57.1381836 349.925049,59.4296875 C349.925049,61.7021484 348.769775,62.9716797 346.694092,62.9716797 L344.770752,62.9716797 L344.770752,55.8686523 Z M357.948486,57.1572266 L356.843994,57.1572266 L356.843994,61.1308594 C356.843994,62.3051758 356.164795,63.0795898 355.04126,63.0795898 C353.968506,63.0795898 353.44165,62.4765625 353.44165,61.3530273 L353.44165,57.1572266 L352.337158,57.1572266 L352.337158,61.543457 C352.337158,63.0986328 353.206787,64.0634766 354.704834,64.0634766 C355.752197,64.0634766 356.456787,63.6572266 356.88208,62.8701172 L356.907471,62.8701172 L356.907471,64 L357.948486,64 L357.948486,57.1572266 Z M362.176025,58.0649414 C363.255127,58.0649414 363.991455,58.8393555 364.016846,60.0009766 L360.252686,60.0009766 C360.328857,58.8457031 361.103271,58.0649414 362.176025,58.0649414 Z M363.991455,62.0449219 C363.794678,62.6860352 363.128174,63.0922852 362.27124,63.0922852 C361.105479,63.0922852 360.323026,62.319863 360.25719,61.1138845 L360.252686,60.8833008 L365.165771,60.8833008 L365.165771,60.4516602 C365.165771,58.3823242 364.023193,57.09375 362.195068,57.09375 C360.328857,57.09375 359.110107,58.4838867 359.110107,60.6040039 C359.110107,62.7241211 360.32251,64.0634766 362.24585,64.0634766 C363.705811,64.0634766 364.892822,63.2192383 365.083252,62.0449219 L363.991455,62.0449219 Z M371.767334,64 L372.871826,64 L372.871826,54.840332 L371.754639,54.840332 L369.317139,56.5922852 L369.317139,57.7983398 L371.741943,56.0527344 L371.767334,56.0527344 L371.767334,64 Z M378.400635,64.1523438 C380.533447,64.1523438 381.764893,62.3051758 381.764893,59.4106445 C381.764893,56.5351562 380.5271,54.6879883 378.400635,54.6879883 C376.27417,54.6879883 375.023682,56.5478516 375.023682,59.4169922 C375.023682,62.3115234 376.261475,64.1523438 378.400635,64.1523438 Z M378.400635,63.1557617 C376.966064,63.1557617 376.172607,61.6958008 376.172607,59.4106445 C376.172607,57.1762695 376.985107,55.690918 378.400635,55.690918 C379.816162,55.690918 380.615967,57.1635742 380.615967,59.4169922 C380.615967,61.7021484 379.828857,63.1557617 378.400635,63.1557617 Z M383.262939,66.0883789 L386.081299,54.8339844 L385.135498,54.8339844 L382.336182,66.0883789 L383.262939,66.0883789 Z M389.159912,64 L390.264404,64 L390.264404,54.840332 L389.147217,54.840332 L386.709717,56.5922852 L386.709717,57.7983398 L389.134521,56.0527344 L389.159912,56.0527344 L389.159912,64 Z M395.793213,64.1523438 C397.926025,64.1523438 399.157471,62.3051758 399.157471,59.4106445 C399.157471,56.5351562 397.919678,54.6879883 395.793213,54.6879883 C393.666748,54.6879883 392.41626,56.5478516 392.41626,59.4169922 C392.41626,62.3115234 393.654053,64.1523438 395.793213,64.1523438 Z M395.793213,63.1557617 C394.358643,63.1557617 393.565186,61.6958008 393.565186,59.4106445 C393.565186,57.1762695 394.377686,55.690918 395.793213,55.690918 C397.20874,55.690918 398.008545,57.1635742 398.008545,59.4169922 C398.008545,61.7021484 397.221436,63.1557617 395.793213,63.1557617 Z M400.655518,66.0883789 L403.473877,54.8339844 L402.528076,54.8339844 L399.72876,66.0883789 L400.655518,66.0883789 Z M404.16434,57.3111607 L404.159424,57.4873047 L405.263916,57.4873047 C405.263916,56.4589844 406.076416,55.6845703 407.14917,55.6845703 C408.158447,55.6845703 408.9646,56.3891602 408.9646,57.2714844 C408.9646,58.0332031 408.672607,58.5219727 407.441162,59.8168945 L404.216553,63.2128906 L404.216553,64 L410.259521,64 L410.259521,62.984375 L405.797119,62.984375 L405.797119,62.9589844 L408.114014,60.565918 C409.643799,58.9853516 410.107178,58.2236328 410.107178,57.2016602 C410.107178,55.7988281 408.818604,54.6879883 407.180908,54.6879883 C405.516009,54.6879883 404.252469,55.7976298 404.16434,57.3111607 L404.16434,57.3111607 Z M414.779053,64.1523438 C416.911865,64.1523438 418.143311,62.3051758 418.143311,59.4106445 C418.143311,56.5351562 416.905518,54.6879883 414.779053,54.6879883 C412.652588,54.6879883 411.4021,56.5478516 411.4021,59.4169922 C411.4021,62.3115234 412.639893,64.1523438 414.779053,64.1523438 Z M414.779053,63.1557617 C413.344482,63.1557617 412.551025,61.6958008 412.551025,59.4106445 C412.551025,57.1762695 413.363525,55.690918 414.779053,55.690918 C416.19458,55.690918 416.994385,57.1635742 416.994385,59.4169922 C416.994385,61.7021484 416.207275,63.1557617 414.779053,63.1557617 Z M421.793213,64 L422.897705,64 L422.897705,54.840332 L421.780518,54.840332 L419.343018,56.5922852 L419.343018,57.7983398 L421.767822,56.0527344 L421.793213,56.0527344 L421.793213,64 Z M428.534424,64.1586914 C430.41333,64.1586914 431.778076,62.8383789 431.778076,61.0292969 C431.778076,59.2900391 430.483154,58.0014648 428.737549,58.0014648 C427.601318,58.0014648 426.592041,58.5917969 426.179443,59.4868164 L426.1604,59.4868164 C426.198486,57.0493164 427.068115,55.690918 428.5979,55.690918 C429.505615,55.690918 430.241943,56.2241211 430.489502,57.0556641 L431.651123,57.0556641 C431.359131,55.6147461 430.165771,54.6816406 428.610596,54.6816406 C426.369873,54.6816406 425.055908,56.4907227 425.055908,59.5756836 C425.055908,60.565918 425.201904,61.3911133 425.506592,62.0957031 C426.071533,63.4160156 427.16333,64.1586914 428.534424,64.1586914 Z M428.521729,63.1430664 C427.347412,63.1430664 426.43335,62.2099609 426.43335,61.0356445 C426.43335,59.8676758 427.328369,59.0043945 428.540771,59.0043945 C429.753174,59.0043945 430.616455,59.8676758 430.616455,61.0673828 C430.616455,62.2226562 429.689697,63.1430664 428.521729,63.1430664 Z" id="Due10/10/2016" fill="#343536" fill-rule="nonzero"></path>
            <path d="M360.232178,40.1523438 C362.396729,40.1523438 363.894775,38.965332 364.18042,37.0039062 L362.574463,37.0039062 C362.320557,38.1083984 361.450928,38.762207 360.238525,38.762207 C358.651611,38.762207 357.648682,37.4736328 357.648682,35.4169922 C357.648682,33.3730469 358.657959,32.078125 360.232178,32.078125 C361.419189,32.078125 362.352295,32.8334961 362.568115,33.9824219 L364.18042,33.9824219 C363.977295,32.0146484 362.358643,30.6879883 360.232178,30.6879883 C357.629639,30.6879883 355.9729,32.4970703 355.9729,35.4169922 C355.9729,38.355957 357.616943,40.1523438 360.232178,40.1523438 Z M371.391357,33.0620117 L369.810791,33.0620117 L369.810791,37.0419922 C369.810791,38.0703125 369.220459,38.7495117 368.255615,38.7495117 C367.32251,38.7495117 366.83374,38.2036133 366.83374,37.1943359 L366.83374,33.0620117 L365.253174,33.0620117 L365.253174,37.5117188 C365.253174,39.1113281 366.198975,40.0888672 367.709717,40.0888672 C368.763428,40.0888672 369.455322,39.6318359 369.836182,38.7875977 L369.874268,38.7875977 L369.874268,40 L371.391357,40 L371.391357,33.0620117 Z M372.737061,40 L374.317627,40 L374.317627,35.9755859 C374.317627,34.9980469 374.876221,34.3950195 375.802979,34.3950195 C376.075928,34.3950195 376.323486,34.4331055 376.456787,34.4838867 L376.456787,33.0493164 C376.336182,33.0112305 376.158447,32.9858398 375.948975,32.9858398 C375.130127,32.9858398 374.508057,33.4555664 374.285889,34.2680664 L374.25415,34.2680664 L374.25415,33.0620117 L372.737061,33.0620117 L372.737061,40 Z M377.301025,40 L378.881592,40 L378.881592,35.9755859 C378.881592,34.9980469 379.440186,34.3950195 380.366943,34.3950195 C380.639893,34.3950195 380.887451,34.4331055 381.020752,34.4838867 L381.020752,33.0493164 C380.900146,33.0112305 380.722412,32.9858398 380.512939,32.9858398 C379.694092,32.9858398 379.072021,33.4555664 378.849854,34.2680664 L378.818115,34.2680664 L378.818115,33.0620117 L377.301025,33.0620117 L377.301025,40 Z M384.835693,34.1982422 C385.775146,34.1982422 386.422607,34.8583984 386.454346,35.8613281 L383.16626,35.8613281 C383.236084,34.8710938 383.908936,34.1982422 384.835693,34.1982422 Z M386.460693,37.9370117 C386.276611,38.5083008 385.686279,38.8701172 384.924561,38.8701172 C383.864502,38.8701172 383.153564,38.1274414 383.153564,37.0102539 L383.153564,36.9150391 L388.009521,36.9150391 L388.009521,36.3945312 C388.009521,34.293457 386.778076,32.9667969 384.835693,32.9667969 C382.848877,32.9667969 381.572998,34.3759766 381.572998,36.5595703 C381.572998,38.7431641 382.842529,40.1015625 384.892822,40.1015625 C386.511475,40.1015625 387.74292,39.2192383 387.946045,37.9370117 L386.460693,37.9370117 Z M389.06958,40 L390.650146,40 L390.650146,36.0200195 C390.650146,35.0043945 391.234131,34.3188477 392.205322,34.3188477 C393.157471,34.3188477 393.627197,34.8774414 393.627197,35.8676758 L393.627197,40 L395.207764,40 L395.207764,35.5566406 C395.207764,33.9506836 394.331787,32.9794922 392.795654,32.9794922 C391.729248,32.9794922 391.031006,33.4238281 390.618408,34.2680664 L390.58667,34.2680664 L390.58667,33.0620117 L389.06958,33.0620117 L389.06958,40 Z M396.966064,31.5131836 L396.966064,33.0620117 L396.020264,33.0620117 L396.020264,34.2871094 L396.966064,34.2871094 L396.966064,38.1591797 C396.966064,39.4985352 397.550049,40.0317383 399.022705,40.0317383 C399.359131,40.0317383 399.682861,40.0063477 399.854248,39.9682617 L399.854248,38.7558594 C399.752686,38.7685547 399.536865,38.7875977 399.384521,38.7875977 C398.813232,38.7875977 398.546631,38.5146484 398.546631,37.9433594 L398.546631,34.2871094 L399.860596,34.2871094 L399.860596,33.0620117 L398.546631,33.0620117 L398.546631,31.5131836 L396.966064,31.5131836 Z M407.934814,40 C409.889893,40 411.083252,39.0097656 411.083252,37.3974609 C411.083252,36.1850586 410.207275,35.2900391 408.963135,35.1694336 L408.963135,35.1186523 C409.902588,34.9663086 410.632568,34.109375 410.632568,33.1254883 C410.632568,31.7353516 409.559814,30.840332 407.896729,30.840332 L404.018311,30.840332 L404.018311,40 L407.934814,40 Z M405.656006,32.1162109 L407.490479,32.1162109 C408.46167,32.1162109 409.013916,32.5668945 409.013916,33.3666992 C409.013916,34.2172852 408.372803,34.699707 407.230225,34.699707 L405.656006,34.699707 L405.656006,32.1162109 Z M405.656006,38.7241211 L405.656006,35.8613281 L407.496826,35.8613281 C408.747314,35.8613281 409.407471,36.3500977 409.407471,37.2832031 C409.407471,38.2226562 408.766357,38.7241211 407.560303,38.7241211 L405.656006,38.7241211 Z M412.156006,40 L413.736572,40 L413.736572,33.0620117 L412.156006,33.0620117 L412.156006,40 Z M412.943115,32.1796875 C413.438232,32.1796875 413.831787,31.7988281 413.831787,31.3100586 C413.831787,30.8149414 413.438232,30.4404297 412.943115,30.4404297 C412.454346,30.4404297 412.054443,30.8149414 412.054443,31.3100586 C412.054443,31.7988281 412.454346,32.1796875 412.943115,32.1796875 Z M415.17749,40 L416.758057,40 L416.758057,30.4150391 L415.17749,30.4150391 L415.17749,40 Z M418.21167,40 L418.21167,30.4150391 L419.792236,30.4150391 L419.792236,40 L418.21167,40 Z" id="CurrentBill" fill="#343536" fill-rule="nonzero"></path>
            <path d="M336.003906,147.636719 L336.003906,145.140625 C340.908203,144.806641 344.019531,142.099609 344.019531,138.056641 C344.019531,134.550391 342.01967,132.539835 337.346232,131.301962 L336.003906,130.955078 L336.003906,121.392578 C338.992188,121.65625 341.189453,123.589844 341.277344,126.015625 L343.5625,126.015625 C343.439453,122.359375 340.363281,119.617188 336.003906,119.300781 L336.003906,116.892578 L334.175781,116.892578 L334.175781,119.318359 C329.658203,119.652344 326.6875,122.324219 326.6875,126.103516 C326.6875,129.325586 328.676014,131.394652 332.881138,132.538808 L334.175781,132.888672 L334.175781,143.066406 C330.853516,142.767578 328.550781,140.816406 328.357422,138.126953 L326.072266,138.126953 C326.125,142.046875 329.429688,144.859375 334.175781,145.158203 L334.175781,147.636719 L336.003906,147.636719 Z M341.699219,138.232422 C341.699219,141.027344 339.449219,142.943359 336.003906,143.101562 L336.003906,133.257812 C340.064453,134.171875 341.699219,135.613281 341.699219,138.232422 Z M328.990234,125.980469 C328.990234,123.449219 331.1875,121.533203 334.175781,121.392578 L334.175781,130.550781 C330.589844,129.759766 328.990234,128.335938 328.990234,125.980469 Z M347.822202,126.488136 L347.816406,126.753906 L350.136719,126.753906 L350.136719,126.736328 C350.171875,123.642578 352.615234,121.339844 355.867188,121.339844 C358.978516,121.339844 361.439453,123.519531 361.439453,126.296875 C361.439453,128.511719 360.525391,130.023438 356.904297,133.837891 L347.939453,143.3125 L347.939453,145 L364.480469,145 L364.480469,142.855469 L351.296875,142.855469 L351.296875,142.785156 L358.932838,134.806138 C362.695429,130.829322 363.830078,128.804415 363.830078,126.15625 C363.830078,122.271484 360.367188,119.230469 355.9375,119.230469 C351.386118,119.230469 347.984517,122.290915 347.822202,126.488136 L347.822202,126.488136 Z M376.785156,145.404297 C382.550781,145.404297 385.960938,140.306641 385.960938,132.291016 C385.960938,124.328125 382.533203,119.230469 376.785156,119.230469 C371.054688,119.230469 367.591797,124.345703 367.591797,132.308594 C367.591797,140.324219 371.019531,145.404297 376.785156,145.404297 Z M376.785156,143.294922 C372.496094,143.294922 370.017578,139.023438 370.017578,132.291016 C370.017578,125.681641 372.548828,121.357422 376.785156,121.357422 C381.039062,121.357422 383.552734,125.646484 383.552734,132.308594 C383.552734,139.023438 381.074219,143.294922 376.785156,143.294922 Z M398.582031,145.404297 C403.662109,145.404297 407.388672,141.748047 407.388672,136.773438 C407.388672,131.974609 403.785156,128.388672 398.96875,128.388672 C395.541016,128.388672 392.535156,130.357422 391.498047,133.205078 L391.445312,133.205078 C391.445312,125.681641 394.099609,121.357422 398.740234,121.357422 C401.570312,121.357422 403.873047,123.080078 404.505859,125.664062 L406.931641,125.664062 C406.210938,121.779297 402.976562,119.230469 398.757812,119.230469 C392.746094,119.230469 389.125,124.345703 389.125,132.853516 C389.125,136.035156 389.6875,138.619141 390.830078,140.605469 C392.394531,143.681641 395.171875,145.404297 398.582031,145.404297 Z M398.564453,143.259766 C394.925781,143.259766 392.130859,140.359375 392.130859,136.667969 C392.130859,133.222656 394.960938,130.515625 398.582031,130.515625 C402.255859,130.515625 404.945312,133.205078 404.945312,136.84375 C404.945312,140.429688 402.132812,143.259766 398.564453,143.259766 Z M413.207031,145.175781 C414.15625,145.175781 414.876953,144.4375 414.876953,143.505859 C414.876953,142.556641 414.15625,141.835938 413.207031,141.835938 C412.275391,141.835938 411.537109,142.556641 411.537109,143.505859 C411.537109,144.4375 412.275391,145.175781 413.207031,145.175781 Z M428.412109,145.404297 C434.177734,145.404297 437.587891,140.306641 437.587891,132.291016 C437.587891,124.328125 434.160156,119.230469 428.412109,119.230469 C422.681641,119.230469 419.21875,124.345703 419.21875,132.308594 C419.21875,140.324219 422.646484,145.404297 428.412109,145.404297 Z M428.412109,143.294922 C424.123047,143.294922 421.644531,139.023438 421.644531,132.291016 C421.644531,125.681641 424.175781,121.357422 428.412109,121.357422 C432.666016,121.357422 435.179688,125.646484 435.179688,132.308594 C435.179688,139.023438 432.701172,143.294922 428.412109,143.294922 Z M449.892578,145.404297 C455.658203,145.404297 459.068359,140.306641 459.068359,132.291016 C459.068359,124.328125 455.640625,119.230469 449.892578,119.230469 C444.162109,119.230469 440.699219,124.345703 440.699219,132.308594 C440.699219,140.324219 444.126953,145.404297 449.892578,145.404297 Z M449.892578,143.294922 C445.603516,143.294922 443.125,139.023438 443.125,132.291016 C443.125,125.681641 445.65625,121.357422 449.892578,121.357422 C454.146484,121.357422 456.660156,125.646484 456.660156,132.308594 C456.660156,139.023438 454.181641,143.294922 449.892578,143.294922 Z" id="$206.00" fill="#3F4142" fill-rule="nonzero"></path>
        </g>
    </g>
</svg>